<ttFont>
          <CharString index="0">
            rmoveto
            -4.0200042724609375 332 -212.99000549316406 116.99000549316406 -235.99000549316406 197 callgsubr
            -350 -2 -195 -248 -332 vvcurveto
            -370.00999450683594 190 -219.97000122070312 348 -17 callsubr
            171 52.97999572753906 61 75 vhcurveto
            153 callgsubr
            -152 -26.009994506835938 -81 hhcurveto
            -175 -117 85.00999450683594 193.99000549316406 -12 hvcurveto
            674.0200042724609 hlineto
            7.9900054931640625 51.02000427246094 3 76.99000549316406 86.02000427246094 vvcurveto
            -290.02000427246094 -41 rmoveto
            -389.97999572753906 hlineto
            203 22 80 63 115 hhcurveto
            140 43 -99 -167 -10.020004272460938 hvcurveto
            endchar
          </CharString>
          <CharString index="1">
            rmoveto
            -325 -67 callgsubr
            146.99000549316406 -284.9700012207031 402 hhcurveto
            323.00999450683594 237 195.99000549316406 366 5 hvcurveto
            325 5 -9 callsubr
            285 -402 hhcurveto
            -324.02000427246094 -235.99000549316406 -195.99000549316406 -366.02000427246094 -6 hvcurveto
            787.0099945068359 -33 rmoveto
            -229 -70 -129.99000549316406 -165 78 callsubr
            -163 2 -66.00999450683594 181 199 vvcurveto
            221 71 128 165 -1 vhcurveto
            164 -2 64 -176.99000549316406 -194 vvcurveto
            endchar
          </CharString>
          <CharString index="2">
            rmoveto
            -402.99000549316406 -1 153 -265.97999572753906 455.99000549316406 hhcurveto
            410 208 229.99000549316406 426 hvcurveto
            881.9900054931641 -313 87 callsubr
            -338.99000549316406 -104 -93 -192 -195 -108 76.99000549316406 355 1 vhcurveto
            -61 callgsubr
            852.0099945068359 rlineto
            -315 hlineto
            -65 callsubr
            -869.0099945068359 rlineto
            endchar
          </CharString>
          <CharString index="3">
            156 callgsubr
            hlineto
            -567.0099945068359 1537.990005493164 rlineto
            -322.00999450683594 hlineto
            -561.9700012207031 -1537.990005493164 rlineto
            341.9700012207031 hlineto
            65 callgsubr
            321.97999572753906 rlineto
            559 hlineto
            -85 callgsubr
            -321.97999572753906 rlineto
            -589.9900054931641 550.9900054931641 rmoveto
            163 522 -46 callgsubr
            157 43 -157 164.99000549316406 -522 rlineto
            -414.99000549316406 hlineto
            endchar
          </CharString>
          <CharString index="4">
            rmoveto
            -1 callsubr
            -232 rlineto
            -41 61.99000549316406 170 -46.97999572753906 165.99000549316406 hhcurveto
            274 173.02000427246094 114.97000122070312 235 167 -88 97.02000427246094 -232 -61 callsubr
            hvcurveto
            -167.02000427246094 57 -57 33.02000427246094 1 70.99000549316406 rrcurveto
            64 1 57 26 135 hhcurveto
            -57 callgsubr
            116 -37 -40 44 hvcurveto
            34 240 rlineto
            24 -41 -118 41 -162 hhcurveto
            -264.00999450683594 -194.99000549316406 -112 -216 -1 hvcurveto
            -1 -164.99000549316406 -30 callsubr
            -117 209 -69 rrcurveto
            164.99000549316406 -54 82 -48 -66 vvcurveto
            -70 -57 -76 callsubr
            -122 1 vhcurveto
            -37 callgsubr
            return
          </CharString>
          <CharString index="5">
            40.96000671386719 return
          </CharString>
          <CharString index="6">
            47 -8.990005493164062 -15.009994506835938 30.990005493164062 -42 callgsubr
            -24.990005493164062 -91.02000427246094 13.990005493164062 -86 hhcurveto
            -197 -229 -100 -333.99000549316406 hvcurveto
            -109 vlineto
            -154.99000549316406 -34.02000427246094 rlineto
            -181.99000549316406 154.99000549316406 vlineto
            return
          </CharString>
          <CharString index="7">
            27 callsubr
            hintmask 1110101010000000
            -86 callsubr
            hintmask 1111000110000000
            -77 callsubr
            hintmask 1111010001000000
            -91 callsubr
            hintmask 1111000110000000
            -91 callgsubr
            hintmask 1111001010000000
            114 callgsubr
            hintmask 1110101010000000
            145 92 39 116 128 65 -65 -123 vhcurveto
            hintmask 1111001010000000
            -142.99000549316406 -92 -32 -115.02000427246094 vhcurveto
            51.02000427246094 -599.9799957275391 rmoveto
            hintmask 1111010001000000
            -95 callgsubr
            hintmask 1111001010000000
            163 hlineto
            endchar
          </CharString>
          <CharString index="8">
            808.9799957275391 vlineto
            69 61 97 25 58 1 rrcurveto
            131 3.9900054931640625 37 -64 -188 vvcurveto
            -647.9900054931641 312 715 vlineto
            333.99000549316406 -115 118 -241 112 callsubr
            -140 -67 callgsubr
            57 callgsubr
            -79 -77 -58 rrcurveto
            return
          </CharString>
          <CharString index="9">
            -386.99000549316406 -182 -264 -336 -326 177 -245.97999572753906 355 144 136 44.99000549316406 68 70 hvcurveto
            72 callgsubr
            185 rlineto
            -25 -46 -98 -22 -104 hhcurveto
            -162 -124 114.00999450683594 9 callgsubr
            7 hvcurveto
            229 6 123 callgsubr
            77 131 hhcurveto
            106 64 -15.009994506835938 -29 -20 callsubr
            hvcurveto
            39.02000427246094 241 rlineto
            return
          </CharString>
          <CharString index="10">
            1046 -13 callsubr
            100 callsubr
            379 -341 311.99000549316406 410.99998474121094 -68 callsubr
            546.0000152587891 -94 callsubr
            hintmask 11010111
            896.9799957275391 149 callsubr
            65 69 -21 callgsubr
            78 -101 callsubr
            267 callsubr
            hmoveto
            -924 -94 callsubr
            924 266.02000427246094 216 -266.02000427246094 124 callsubr
            31.009994506835938 -5 callgsubr
            -197 -229 -100 -333.99000549316406 hvcurveto
            -109 vlineto
            -154.99000549316406 -34.02000427246094 rlineto
            -181.99000549316406 154.99000549316406 vlineto
            hintmask 11101011
            -1619 553 -90 callgsubr
            hintmask 11010111
            -2 callsubr
          </CharString>
          <CharString index="11">
            -567.0099945068359 895 rlineto
            -294.99000549316406 -76 callgsubr
            296 740.9900054931641 hlineto
            -34 363 120.00999450683594 -243 542.9900054931641 -861 rlineto
            319 -69 callsubr
            -296 return
          </CharString>
          <CharString index="12">
            rmoveto
            -132 -554 -51 -271.00999450683594 -52 274 -165 551.0200042724609 rlineto
            -291 hlineto
            -164.99000549316406 -552.0200042724609 -57.02000427246094 -274.97999572753906 -52 275.97999572753906 -141.99000549316406 551.0200042724609 rlineto
            -312.00999450683594 hlineto
            348.02000427246094 -1155.990005493164 rlineto
            289 hlineto
            179 606.9799957275391 rlineto
            return
          </CharString>
          <CharString index="13">
            311.99000549316406 return
          </CharString>
          <CharString index="14">
            -61 -370.00999450683594 -52.97999572753906 370.00999450683594 -188 894 rlineto
            -319 hlineto
            408 -1537.979995727539 rlineto
            303.97999572753906 hlineto
            219.02000427246094 848.9700012207031 45 329.00999450683594 48.99000549316406 -328 214.02000427246094 -849.9799957275391 rlineto
            326 hlineto
            397.99000549316406 1537.979995727539 rlineto
            return
          </CharString>
          <CharString index="15">
            rmoveto
            253 2 111.99000549316406 122 148 hhcurveto
            67.99000549316406 171 callsubr
            -28.020004272460938 41 hvcurveto
            -615 198 callgsubr
            -47 -81 -28.020004272460938 -86 hhcurveto
            -135 -90.00999450683594 -65 callgsubr
            254 2 hvcurveto
            endchar
          </CharString>
          <CharString index="16">
            -101 -44 -75 -83.97999572753906 -109.02000427246094 vvcurveto
            -215 198 -114 344 -67 callgsubr
            vhcurveto
            309.97999572753906 -4.0200042724609375 291 148 270 vvcurveto
            162.97999572753906 -42 callsubr
            182 -372 vhcurveto
            return
          </CharString>
          <CharString index="17">
            -96 587.9799957275391 200 733 192 hstemhm
            720.9900054931641 259.99000549316406 -212.98001098632812 273.97999572753906 hintmask 11010000
            205 callgsubr
            819 rmoveto
            6 -184.02000427246094 rlineto
            -12.990005493164062 55 callgsubr
            -34.02000427246094 136.99000549316406 hhcurveto
            326 145 162.02000427246094 -44 callsubr
            117 -87.99000549316406 113.00999450683594 -162.02000427246094 107 callsubr
            hvcurveto
            hintmask 11100000
            151 81 38 94 100 vvcurveto
            135 -107.00999450683594 -52 callsubr
            -262 -109 -177.99000549316406 -48 -64.97999572753906 -77 vhcurveto
            66 -157.02000427246094 rlineto
            53 86 -57 callgsubr
            25 67.02000427246094 hhcurveto
            98 59 -33 -66 1 hvcurveto
            -61 callgsubr
            -74 -70 -60 -93 -28 -37.99000549316406 -9.020004272460938 -38 -6.9799957275390625 -48.99000549316406 -7 -1 -185 rcurveline
            hintmask 11010000
            159 32.99000549316406 rlineto
            94 callsubr
            -22 45.02000427246094 -58 -62 vvcurveto
            -99 141 callsubr
            -54.99000549316406 -172 -1 vhcurveto
            -120.00999450683594 -60.99000549316406 16 15.020004272460938 -64 hvcurveto
            endchar
          </CharString>
          <CharString index="18">
            258 callgsubr
            99 33.02000427246094 180 161 87 112 rlinecurve
            return
          </CharString>
          <CharString index="19">
            rmoveto
            -341.00999450683594 hlineto
            -287.99000549316406 -590.0099945068359 64 callsubr
            -36 callgsubr
            -19 callgsubr
            -37 callsubr
            -280 590.0099945068359 rlineto
            -349.97999572753906 hlineto
            return
          </CharString>
          <CharString index="20">
            -107 -99 callgsubr
            210.97999572753906 334.99000549316406 176 218.010009765625 237.99000549316406 return
          </CharString>
          <CharString index="21">
            -88 59 -124.00999450683594 25.990005493164062 -148.99000549316406 197 callgsubr
            -299.00999450683594 -67 callgsubr
            -194.99000549316406 -111 -266.02000427246094 vvcurveto
            -139 -29 callsubr
            -116 144 -62 vhcurveto
            return
          </CharString>
          <CharString index="22">
            -78 callgsubr
            -52 callgsubr
            return
          </CharString>
          <CharString index="23">
            -218.99000549316406 -92 -16 -93 hhcurveto
            -147 105 callsubr
            575 hlineto
            86 64 -61 callgsubr
            2 51 hvcurveto
            147 -2 30.990005493164062 -289 86.02000427246094 -177.99000549316406 29.990005493164062 -64 8 -20.009994506835938 18 -76 callsubr
            rrcurveto
            354 hlineto
            return
          </CharString>
          <CharString index="24">
            17 callgsubr
            hintmask 10101011
            -88 callgsubr
            hintmask 01100111
            15 callgsubr
            hlineto
            hintmask 10101011
            525 -1294.009994506836 -97 callgsubr
            hintmask 01011011
            916.9900054931641 -145 rmoveto
            42 79 callsubr
            rlineto
            911.0099945068359 253 callsubr
            61 271 callsubr
            hintmask 01101011
            -35 95 rlineto
            -866 hlineto
            -2 -217 rlineto
            488 hlineto
            -58 -83 rlineto
            hintmask 01011011
            273 callgsubr
          </CharString>
          <CharString index="25">
            -670 0 -74 callgsubr
            165.989990234375 358.00999450683594 130 callgsubr
            hintmask 00000000
            hintmask 11110000
            100 callsubr
            -55 callsubr
            hintmask 11101000
            -2 callsubr
          </CharString>
          <CharString index="26">
            0 -78 callsubr
            return
          </CharString>
          <CharString index="27">
            -25 -515.9900054931641 183.99000549316406 332 242.99000549316406 165.989990234375 190.99000549316406 314.00999450683594 226.00999450683594 -176.99998474121094 193 return
          </CharString>
          <CharString index="28">
            84.99000549316406 33 callsubr
            71.99000549316406 -111 return
          </CharString>
          <CharString index="29">
            43 1438.0299987792969 -102 callsubr
            return
          </CharString>
          <CharString index="30">
            -140.99000549316406 -57 -40.02000427246094 -96.00999450683594 -0.9900054931640625 -77 -1 -65 24.990005493164062 -59 callgsubr
            69.02000427246094 -36 rrcurveto
            return
          </CharString>
          <CharString index="31">
            -25.990005493164062 return
          </CharString>
          <CharString index="32">
            164 24 callsubr
            42 callgsubr
            243.00999450683594 465.99000549316406 252 return
          </CharString>
          <CharString index="33">
            -51 callgsubr
            -15 callgsubr
            -42 callsubr
            -23 callsubr
            return
          </CharString>
          <CharString index="34">
            rmoveto
            -76 callgsubr
            320 25 callsubr
            vlineto
            return
          </CharString>
          <CharString index="35">
            -83 callgsubr
            -73 callgsubr
            return
          </CharString>
          <CharString index="36">
            241.99000549316406 return
          </CharString>
          <CharString index="37">
            173.99000549316406 -94 callsubr
            return
          </CharString>
          <CharString index="38">
            1521.990005493164 return
          </CharString>
          <CharString index="39">
            312.00999450683594 return
          </CharString>
          <CharString index="40">
            -102.00999450683594 return
          </CharString>
          <CharString index="41">
            250.97999572753906 408 241 378.010009765625 2 callsubr
            return
          </CharString>
          <CharString index="42">
            -1.9900054931640625 return
          </CharString>
          <CharString index="43">
            rmoveto
            -76 callgsubr
            866 -71 callsubr
            -547.9900054931641 1280 -318.00999450683594 vlineto
            return
          </CharString>
          <CharString index="44">
            226.02000427246094 vlineto
            hintmask 1110110100100000
            -35 callgsubr
            145 92 39 116 128 65 -65 -123 -142.99000549316406 -92 -32 -115.02000427246094 hvcurveto
            51.02000427246094 -599.9799957275391 rmoveto
            hintmask 1111011000010000
            -95 callgsubr
            hintmask 1110110100100000
            163 hlineto
            endchar
          </CharString>
          <CharString index="45">
            -102 callsubr
            hstemhm
            return
          </CharString>
          <CharString index="46">
            78.99000549316406 return
          </CharString>
          <CharString index="47">
            -7 40 42 -67 callgsubr
            46 hhcurveto
            323.00999450683594 237 195.99000549316406 366 5 hvcurveto
            4.0099945068359375 246.99000549316406 -84 224 -218 93 rrcurveto
            -489 -524 rmoveto
            221 71 128 165 -1 vhcurveto
            19 17 -3.0200042724609375 -67 callgsubr
            16 hvcurveto
            -222 -627 rlineto
            -46 71 -20.009994506835938 105 110 vvcurveto
            229 -382.00999450683594 rmoveto
            210 callgsubr
            -19.009994506835938 3 6 -18 hvcurveto
            225 633 rlineto
            47 -70 21.020004272460938 -105 -110 vvcurveto
            -229 -70 -129.99000549316406 -165 78 callsubr
            endchar
          </CharString>
          <CharString index="48">
            -235 63 callgsubr
            -89 callsubr
            return
          </CharString>
          <CharString index="49">
            -559.9900054931641 43 1.010009765625 43 return
          </CharString>
          <CharString index="50">
            768.9799957275391 vlineto
            45.02000427246094 47.99000549316406 99 callsubr
            58 43 callgsubr
            hhcurveto
            83 47 callsubr
            -16.020004272460938 -12 22.020004272460938 hvcurveto
            return
          </CharString>
          <CharString index="51">
            -180 -205 -75 -44.02000427246094 -59 callgsubr
            return
          </CharString>
          <CharString index="52">
            1477 -90 callgsubr
            return
          </CharString>
          <CharString index="53">
            -57 callgsubr
            322.99000549316406 464.00999450683594 322.99000549316406 return
          </CharString>
          <CharString index="54">
            91 0 -46 callsubr
            return
          </CharString>
          <CharString index="55">
            107.99000549316406 return
          </CharString>
          <CharString index="56">
            -28 callsubr
            162 callgsubr
            return
          </CharString>
          <CharString index="57">
            -6 callgsubr
            -111 -34 callgsubr
            return
          </CharString>
          <CharString index="58">
            82.99000549316406 102.02000427246094 -57 callgsubr
            return
          </CharString>
          <CharString index="59">
            45 67 callgsubr
            44 -217.99000549316406 182 -606.9799957275391 rlineto
            278 hlineto
            356 1155.990005493164 rlineto
            return
          </CharString>
          <CharString index="60">
            98 callgsubr
            -85 callgsubr
            106 83 -12 callgsubr
            vhcurveto
            return
          </CharString>
          <CharString index="61">
            43 278.97999572753906 229 946.0399932861328 -102 callsubr
            return
          </CharString>
          <CharString index="62">
            -51.02000427246094 -354.02000427246094 -62 354.02000427246094 -234 894 rlineto
            -284 hlineto
            -220 -894 rlineto
            return
          </CharString>
          <CharString index="63">
            205.99000549316406 return
          </CharString>
          <CharString index="64">
            150.97999572753906 315 597.010009765625 312.99000549316406 return
          </CharString>
          <CharString index="65">
            -66.99000549316406 return
          </CharString>
          <CharString index="66">
            125 callsubr
            77 callgsubr
            return
          </CharString>
          <CharString index="67">
            -84.99000549316406 -67 callsubr
            return
          </CharString>
          <CharString index="68">
            -73 callsubr
            511 -1685.990005493164 rmoveto
            77 -168 171 6 288.99000549316406 126 callgsubr
            rlinecurve
            28 145 -9.009994506835938 6 callsubr
            -4 97 callsubr
            64 callsubr
            86 callsubr
            rrcurveto
            endchar
          </CharString>
          <CharString index="69">
            -99 callgsubr
            229.99000549316406 713.9799957275391 228 hstem
            121 callsubr
            298 235.989990234375 307.02000427246094 vstem
            return
          </CharString>
          <CharString index="70">
            112.99000549316406 return
          </CharString>
          <CharString index="71">
            105.99000549316406 92.02000427246094 85 113 callgsubr
            -69.02000427246094 -7 callsubr
            return
          </CharString>
          <CharString index="72">
            147 callgsubr
            -73 callgsubr
            389.9700012207031 290.02000427246094 vstem
            return
          </CharString>
          <CharString index="73">
            162 43 callsubr
            222 198.99000549316406 76 callsubr
            165 92 24 callgsubr
            return
          </CharString>
          <CharString index="74">
            -62 callsubr
            -83 callgsubr
            return
          </CharString>
          <CharString index="75">
            -56 12 -58.99000549316406 6 -63.02000427246094 -2 -412 -12 -301 -230 -10 -527.0099945068359 -6 -336 134 -262 238 160 callgsubr
            -88 -240 rcurveline
            79 callgsubr
            -1 callsubr
            83 226.97999572753906 64 -15.970001220703125 69 -9.009994506835938 74.02000427246094 2 rlinecurve
            406 7.9900054931640625 290 245 10 525.9900054931641 rrcurveto
            return
          </CharString>
          <CharString index="76">
            -166 -113.99000549316406 -16 -89.00999450683594 hhcurveto
            return
          </CharString>
          <CharString index="77">
            79.00999450683594 return
          </CharString>
          <CharString index="78">
            89.99000549316406 return
          </CharString>
          <CharString index="79">
            -4 -99 callgsubr
            20 callgsubr
            return
          </CharString>
          <CharString index="80">
            56 callsubr
            110.97999572753906 -14.009994506835938 39 hhcurveto
            4 callgsubr
            return
          </CharString>
          <CharString index="81">
            808.9799957275391 vlineto
            69 61 101 25 56 1 rrcurveto
            130 -68 callgsubr
            34 -65 -186 vvcurveto
            -647.9900054931641 -94 callsubr
            706.9900054931641 vlineto
            37 -1 35 71 callgsubr
            33 vhcurveto
            56 45 1 callgsubr
            38 77 1 rrcurveto
            134.99000549316406 -68 callgsubr
            31 -64 -186 vvcurveto
            -648.9900054931641 -68 callsubr
            716.9799957275391 vlineto
            return
          </CharString>
          <CharString index="82">
            -264 672.9900054931641 1031 hstem
            410.99000549316406 278.99000549316406 vstem
            410.99000549316406 1402 rmoveto
            69 callgsubr
            -202 -113.99000549316406 -121.02000427246094 -35 rlinecurve
            40.02000427246094 -161 72.99000549316406 12.990005493164062 56 16.020004272460938 -6 callgsubr
            18 rlinecurve
            endchar
          </CharString>
          <CharString index="83">
            -83 callgsubr
            295.99000549316406 651.9999847412109 295.99000549316406 return
          </CharString>
          <CharString index="84">
            69.97999572753906 -42 10.020004272460938 vhcurveto
            return
          </CharString>
          <CharString index="85">
            130.99000549316406 return
          </CharString>
          <CharString index="86">
            91.02000427246094 return
          </CharString>
          <CharString index="87">
            54.99000549316406 return
          </CharString>
          <CharString index="88">
            rmoveto
            412.02000427246094 468.00999450683594 120 callgsubr
            -468.00999450683594 374 610 244 -1133 vlineto
            -765.9900054931641 -76 callgsubr
            rlineto
            344.97999572753906 hlineto
            178.02000427246094 375.99000549316406 rlineto
            448 -375.99000549316406 992.9900054931641 250.97999572753906 -675 hlineto
            -660.9900054931641 156 callgsubr
            rmoveto
            return
          </CharString>
          <CharString index="89">
            169 callsubr
            -83 61 callsubr
            -21 callsubr
            98 115 -2 hvcurveto
            155 callsubr
            -1 -68 -16 callsubr
            -116 hhcurveto
            return
          </CharString>
          <CharString index="90">
            176.99000549316406 return
          </CharString>
          <CharString index="91">
            83.99000549316406 return
          </CharString>
          <CharString index="92">
            104 -30 callsubr
            15 callsubr
            -102.00999450683594 48 callgsubr
            8 callgsubr
            return
          </CharString>
          <CharString index="93">
            0 43 -31.020004272460938 198 417.010009765625 229 callgsubr
            -110.99000549316406 195.99000549316406 417.99998474121094 196 -33.94999694824219 -62 callsubr
            225 callsubr
            248.99000549316406 324.99998474121094 248.99000549316406 335.02000427246094 248.99000549316406 324.99998474121094 249.99000549316406 return
          </CharString>
          <CharString index="94">
            12 callgsubr
            -30 callgsubr
            -201.00999450683594 219.99000549316406 hstemhm
            return
          </CharString>
          <CharString index="95">
            -102 callsubr
            -44 callgsubr
            return
          </CharString>
          <CharString index="96">
            -109.02000427246094 197 -167 1 callgsubr
            -30 rlinecurve
            return
          </CharString>
          <CharString index="97">
            -608 -81 callsubr
            return
          </CharString>
          <CharString index="98">
            -146.99000549316406 return
          </CharString>
          <CharString index="99">
            111 -14.009994506835938 39 hhcurveto
            187 callgsubr
            156.02000427246094 165 423.97999572753906 hvcurveto
            1058.020004272461 -312.00999450683594 -1139.020004272461 vlineto
            return
          </CharString>
          <CharString index="100">
            72.00999450683594 return
          </CharString>
          <CharString index="101">
            -123 -99 callgsubr
            248.97999572753906 1066.990005493164 237.99000549316406 return
          </CharString>
          <CharString index="102">
            510.9700012207031 -987 rlineto
            -535 319 532.9900054931641 vlineto
            return
          </CharString>
          <CharString index="103">
            -9 callgsubr
            hstem
            577.9799957275391 246 vstem
            577.9900054931641 473.99000549316406 rmoveto
            -214 246 214 vlineto
            -7 188 151 -6 rlineto
            222 237 -222 hlineto
            -151 -7 7 187 rlineto
            217 -246 -217 vlineto
            6 -187 -162 7 rlineto
            -209 -237 209 hlineto
            162 6 -6 -188 rlineto
            return
          </CharString>
          <CharString index="104">
            -28 -99 callgsubr
            219.97999572753906 return
          </CharString>
          <CharString index="105">
            38 -337 -66 callgsubr
          </CharString>
          <CharString index="106">
            -31.990005493164062 return
          </CharString>
          <CharString index="107">
            66.00999450683594 return
          </CharString>
          <CharString index="108">
            -67.00999450683594 return
          </CharString>
          <CharString index="109">
            243.99000549316406 return
          </CharString>
          <CharString index="110">
            -78 callgsubr
            167 callsubr
            return
          </CharString>
          <CharString index="111">
            584 -614.0099945068359 rmoveto
            -244 94 callsubr
            -200.99000549316406 187 callsubr
            119 callgsubr
            vhcurveto
            223.99000549316406 2 205 160 290 vvcurveto
            248 -120 200 -275 -3 vhcurveto
            -223.99000549316406 -65 callsubr
            -205 -161.02000427246094 -290 vvcurveto
            return
          </CharString>
          <CharString index="112">
            55 callsubr
            -126.00999450683594 -9 callsubr
            -36 callgsubr
            -106 rlinecurve
            return
          </CharString>
          <CharString index="113">
            177.99000549316406 199 vvcurveto
            909 -320 -914 vlineto
            -206.99000549316406 return
          </CharString>
          <CharString index="114">
            -30 callsubr
            78 callgsubr
            return
          </CharString>
          <CharString index="115">
            167.99000549316406 -94 callsubr
            return
          </CharString>
          <CharString index="116">
            810.9900054931641 1158.979995727539 rmoveto
            57 callsubr
            -67 callgsubr
            -144.02000427246094 -68 -78.99000549316406 -65 17 202 rcurveline
            return
          </CharString>
          <CharString index="117">
            215.97999572753906 707.010009765625 217 return
          </CharString>
          <CharString index="118">
            123 callsubr
            59 137 rlinecurve
            return
          </CharString>
          <CharString index="119">
            -13.990005493164062 156.02000427246094 rlineto
            -277.02000427246094 -1140 109 callsubr
            hlineto
            return
          </CharString>
          <CharString index="120">
            -61 callsubr
            -49 callsubr
            return
          </CharString>
          <CharString index="121">
            407 443 rlineto
            -353 hlineto
            -385 -450 9.990005493164062 287 rlineto
            683.9900054931641 -1 callgsubr
            -1660.990005493164 -94 callsubr
            227 callgsubr
            vlineto
            -67 callgsubr
            129 122 133 294.99000549316406 -474.99000549316406 rlineto
            return
          </CharString>
          <CharString index="122">
            -49 callsubr
            -54 72 -110 return
          </CharString>
          <CharString index="123">
            12 callgsubr
            322.989990234375 219.99000549316406 return
          </CharString>
          <CharString index="124">
            -97 callgsubr
            endchar
          </CharString>
          <CharString index="125">
            -81 callsubr
            74 callsubr
            return
          </CharString>
          <CharString index="126">
            -31 -99 callgsubr
            9 callgsubr
            1055.979995727539 252 return
          </CharString>
          <CharString index="127">
            294.99000549316406 -193.00001525878906 307.99000549316406 return
          </CharString>
          <CharString index="128">
            -29 -68 callgsubr
            11.020004272460938 -17 hvcurveto
            return
          </CharString>
          <CharString index="129">
            -52 -47 -65 hhcurveto
            -31 21 callsubr
            122 callsubr
            -165 rlineto
            -16 24.990005493164062 return
          </CharString>
          <CharString index="130">
            43 535.9900054931641 118 callsubr
            503.00999450683594 -9 callgsubr
            106 callgsubr
            return
          </CharString>
          <CharString index="131">
            -99 callgsubr
            243.97999572753906 return
          </CharString>
          <CharString index="132">
            -69 callsubr
            -320 return
          </CharString>
          <CharString index="133">
            30 -678.0099945068359 rmoveto
            -65 -127 3 23 -29 hvcurveto
            431.99000549316406 vlineto
            5.0200042724609375 29 126 -61 callgsubr
            65 hhcurveto
            203 1 callgsubr
            -68 -156 -180 -101.00999450683594 -61 -191 hvcurveto
            endchar
          </CharString>
          <CharString index="134">
            rmoveto
            -127 hlineto
            -86 -61 -35 -32 -36.99000549316406 hvcurveto
            return
          </CharString>
          <CharString index="135">
            43 -40.99000549316406 43 hstemhm
            return
          </CharString>
          <CharString index="136">
            53 callsubr
            186 callsubr
            hintmask 11010000
            return
          </CharString>
          <CharString index="137">
            -65 callgsubr
            103 98 -59.99000549316406 return
          </CharString>
          <CharString index="138">
            75 -815.9799957275391 rlineto
            312 hlineto
            -181.99000549316406 -69 callsubr
            rlineto
            -434.02000427246094 hlineto
            -182.99000549316406 -800.0099945068359 -58 -336 -77 336 -203 800.0099945068359 rlineto
            -447 hlineto
            endchar
          </CharString>
          <CharString index="139">
            hhcurveto
            -153 -104 -100 66 callgsubr
            -19 callgsubr
            hvcurveto
            return
          </CharString>
          <CharString index="140">
            113 callgsubr
            -69 return
          </CharString>
          <CharString index="141">
            105 0 68 callsubr
            471.97999572753906 309 hintmask 11101100
            return
          </CharString>
          <CharString index="142">
            427 -99 callgsubr
            43 781.9700012207031 331.02000427246094 -40.970001220703125 -102 callsubr
            return
          </CharString>
          <CharString index="143">
            97.97999572753906 -15 callgsubr
            return
          </CharString>
          <CharString index="144">
            -28 rlineto
            52 60 68 75 callgsubr
            221 callsubr
            32 -33 27 145 callgsubr
            -9.990005493164062 57 callsubr
            -13 -61 return
          </CharString>
          <CharString index="145">
            rmoveto
            -56 callsubr
            hvcurveto
            64 callgsubr
            -46 callgsubr
            97 156.02000427246094 37 -7 callgsubr
            hhcurveto
            193 33 -24 -122 hvcurveto
            -72 vlineto
            return
          </CharString>
          <CharString index="146">
            -81 callsubr
            261 callgsubr
            return
          </CharString>
          <CharString index="147">
            hstemhm
            -72 callsubr
            return
          </CharString>
          <CharString index="148">
            -143.02000427246094 248.02000427246094 hhcurveto
            210 callsubr
            161 callsubr
            174 callgsubr
            hhcurveto
            -156.02000427246094 return
          </CharString>
          <CharString index="149">
            -14.990005493164062 return
          </CharString>
          <CharString index="150">
            -89.99000549316406 return
          </CharString>
          <CharString index="151">
            -507 85 callgsubr
            304.00999450683594 return
          </CharString>
          <CharString index="152">
            28 64 callsubr
            -115 30 -143 hhcurveto
            return
          </CharString>
          <CharString index="153">
            -1609.009994506836 rmoveto
            -110 1 77.99000549316406 79 callsubr
            146 callgsubr
            136 callsubr
            1 callgsubr
            36 callsubr
            -1 hvcurveto
            return
          </CharString>
          <CharString index="154">
            31.990005493164062 return
          </CharString>
          <CharString index="155">
            -852.0099945068359 return
          </CharString>
          <CharString index="156">
            rmoveto
            -184 -98 rlineto
            -50 vlineto
            28 -13 34 -60 callgsubr
            -76 callsubr
            vlineto
            hintmask 10111100
            240 callgsubr
            42 15.020004272460938 return
          </CharString>
          <CharString index="157">
            -404 0 68 callgsubr
            return
          </CharString>
          <CharString index="158">
            221 callgsubr
            149 137.02000427246094 -117 -52 callsubr
            -141 169 return
          </CharString>
          <CharString index="159">
            28 callgsubr
            219 hlineto
            return
          </CharString>
          <CharString index="160">
            -222 0 10 callsubr
            -95 95 return
          </CharString>
          <CharString index="161">
            80 11 callsubr
            return
          </CharString>
          <CharString index="162">
            174 -75 callgsubr
            -166 return
          </CharString>
          <CharString index="163">
            -201 vlineto
            -9.990005493164062 25 return
          </CharString>
          <CharString index="164">
            -124.99000549316406 return
          </CharString>
          <CharString index="165">
            228 callsubr
            -29 130 -162 32 callsubr
            193 callsubr
            37 59 55.99000549316406 58 hhcurveto
            return
          </CharString>
          <CharString index="166">
            -214.02000427246094 656 416.00999450683594 rlineto
            243 vlineto
            -656 422.00999450683594 return
          </CharString>
          <CharString index="167">
            hvcurveto
            -187 hlineto
            -48 -4 -19 -95 -153 hhcurveto
            -156 return
          </CharString>
          <CharString index="168">
            146 callgsubr
            -37 callsubr
            return
          </CharString>
          <CharString index="169">
            372 rlineto
            -222.99000549316406 hlineto
            -286 return
          </CharString>
          <CharString index="170">
            267 292.97999572753906 return
          </CharString>
          <CharString index="171">
            -38.02000427246094 return
          </CharString>
          <CharString index="172">
            -113.00999450683594 return
          </CharString>
          <CharString index="173">
            107.00999450683594 return
          </CharString>
          <CharString index="174">
            221 callgsubr
            283 372.02000427246094 -161 -29 callsubr
            -233 -246 -242.02000427246094 246 -156 -89 239 callgsubr
            return
          </CharString>
          <CharString index="175">
            23 callsubr
            hstemhm
            187.99000549316406 318.00999450683594 return
          </CharString>
          <CharString index="176">
            -143 -132 43 callsubr
            -85.00999450683594 -48 hvcurveto
            return
          </CharString>
          <CharString index="177">
            93 callgsubr
            -120.02000427246094 -33.970001220703125 -65 13 9 -18 vhcurveto
            return
          </CharString>
          <CharString index="178">
            -98.02000427246094 return
          </CharString>
          <CharString index="179">
            96.99000549316406 return
          </CharString>
          <CharString index="180">
            254 callgsubr
            651 593 -651 314 -69 callsubr
            -314 -632 -593 632 -318.00999450683594 vlineto
            endchar
          </CharString>
          <CharString index="181">
            hstem
            -24 callsubr
            return
          </CharString>
          <CharString index="182">
            92 -275.99000549316406 308 rlineto
            -220.02000427246094 hlineto
            return
          </CharString>
          <CharString index="183">
            221 -198.99000549316406 return
          </CharString>
          <CharString index="184">
            -291.97999572753906 rlineto
            return
          </CharString>
          <CharString index="185">
            -61 callgsubr
            vhcurveto
            return
          </CharString>
          <CharString index="186">
            -82.97999572753906 return
          </CharString>
          <CharString index="187">
            609 0 250.97999572753906 125.010009765625 222 65 120 callgsubr
            374.00999450683594 2 callsubr
            -197.99000549316406 198 return
          </CharString>
          <CharString index="188">
            hstem
            76 callgsubr
            return
          </CharString>
          <CharString index="189">
            138 callgsubr
            -86.02000427246094 -79 -67 callsubr
            return
          </CharString>
          <CharString index="190">
            -137 124 callgsubr
            -126 -9 callsubr
            return
          </CharString>
          <CharString index="191">
            132 callsubr
            hstem
            205 callsubr
            320 vstem
            return
          </CharString>
          <CharString index="192">
            -88.99000549316406 return
          </CharString>
          <CharString index="193">
            -161.97000122070312 -115 -80.02000427246094 -104 -39 return
          </CharString>
          <CharString index="194">
            48 callsubr
            vlineto
            return
          </CharString>
          <CharString index="195">
            15 callsubr
            116 callgsubr
            return
          </CharString>
          <CharString index="196">
            -133 161.02000427246094 111 callgsubr
            return
          </CharString>
          <CharString index="197">
            30 callsubr
            0 callsubr
            -111 return
          </CharString>
          <CharString index="198">
            -61 callsubr
            -71 -26 callgsubr
            return
          </CharString>
          <CharString index="199">
            1477.979995727539 rmoveto
            0 callgsubr
            return
          </CharString>
          <CharString index="200">
            rmoveto
            -237.02000427246094 vlineto
            return
          </CharString>
          <CharString index="201">
            129.99000549316406 return
          </CharString>
          <CharString index="202">
            rmoveto
            -156 85 callsubr
            239 callgsubr
            283 372 -161 30 callgsubr
            return
          </CharString>
          <CharString index="203">
            511.02000427246094 989 rlineto
            endchar
          </CharString>
          <CharString index="204">
            -170 -28 -114.00999450683594 vhcurveto
            return
          </CharString>
          <CharString index="205">
            -65 callgsubr
            103 98 -60 return
          </CharString>
          <CharString index="206">
            80.02000427246094 return
          </CharString>
          <CharString index="207">
            135.99000549316406 return
          </CharString>
          <CharString index="208">
            -76 callsubr
            vlineto
            endchar
          </CharString>
          <CharString index="209">
            1267 1530 rmoveto
            -592.0200042724609 -1530 rlineto
            246 hlineto
            593 1530 rlineto
            -246.99000549316406 hlineto
            return
          </CharString>
          <CharString index="210">
            -99 callgsubr
            176 callgsubr
            704.9900054931641 216 return
          </CharString>
          <CharString index="211">
            460.97999572753906 318.99000549316406 return
          </CharString>
          <CharString index="212">
            -76 callgsubr
            -73 callgsubr
            return
          </CharString>
          <CharString index="213">
            -99 109 callgsubr
            -65 return
          </CharString>
          <CharString index="214">
            8.990005493164062 return
          </CharString>
          <CharString index="215">
            -94.99000549316406 return
          </CharString>
          <CharString index="216">
            312.02000427246094 return
          </CharString>
          <CharString index="217">
            -43 callgsubr
            93 callgsubr
            return
          </CharString>
          <CharString index="218">
            -44 callgsubr
            vstem
            return
          </CharString>
          <CharString index="219">
            -29 callgsubr
            vhcurveto
            return
          </CharString>
          <CharString index="220">
            -4.0200042724609375 hvcurveto
            return
          </CharString>
          <CharString index="221">
            241 -830.9700012207031 rlineto
            251.99000549316406 hlineto
            218 830.9700012207031 112 466 27 -466 rlineto
            return
          </CharString>
          <CharString index="222">
            -64 callsubr
            endchar
          </CharString>
          <CharString index="223">
            40.96000671386719 40 callsubr
            return
          </CharString>
          <CharString index="224">
            133 callsubr
            100.99000549316406 return
          </CharString>
          <CharString index="225">
            218.99000549316406 return
          </CharString>
          <CharString index="226">
            -42.99000549316406 return
          </CharString>
          <CharString index="227">
            -41.99000549316406 return
          </CharString>
          <CharString index="228">
            118.99000549316406 return
          </CharString>
          <CharString index="229">
            -19.990005493164062 return
          </CharString>
          <CharString index="230">
            35 267 210 return
          </CharString>
          <CharString index="231">
            116 vlineto
            138 65 69 95.00999450683594 77.99000549316406 47 -8.990005493164062 -15.009994506835938 return
          </CharString>
          <CharString index="232">
            0 callsubr
            -111 -104 return
          </CharString>
          <CharString index="233">
            1891.979995727539 rmoveto
            95 callgsubr
            142 callgsubr
            -44 callsubr
            -590.9900054931641 vlineto
            return
          </CharString>
          <CharString index="234">
            136 callgsubr
            -100 70 -64 -26 callgsubr
            105.99000549316406 83 -65 callgsubr
            103 98 return
          </CharString>
          <CharString index="235">
            rmoveto
            131 callsubr
            -282.99000549316406 239 callsubr
            -373 return
          </CharString>
          <CharString index="236">
            -137.02000427246094 54 callsubr
            return
          </CharString>
          <CharString index="237">
            rmoveto
            125.00999450683594 -98 240 callsubr
            return
          </CharString>
          <CharString index="238">
            233 217 callgsubr
            return
          </CharString>
          <CharString index="239">
            43 1234.990005493164 2 callsubr
            return
          </CharString>
          <CharString index="240">
            71 callsubr
            65 173 callgsubr
            return
          </CharString>
          <CharString index="241">
            -183.99000549316406 -98 rlineto
            -50 vlineto
            return
          </CharString>
          <CharString index="242">
            vlineto
            -68 callgsubr
            return
          </CharString>
          <CharString index="243">
            113.99000549316406 return
          </CharString>
          <CharString index="244">
            -102 callsubr
            165.989990234375 358.00999450683594 185 callsubr
            return
          </CharString>
          <CharString index="245">
            hvcurveto
            -126.00999450683594 204 callsubr
            rlineto
            -51 -36.99000549316406 192 callsubr
            return
          </CharString>
          <CharString index="246">
            63 callsubr
            57 callgsubr
            61 callgsubr
            return
          </CharString>
          <CharString index="247">
            -689 -22 160 callsubr
            -404.9800109863281 43 return
          </CharString>
          <CharString index="248">
            -68.02000427246094 return
          </CharString>
          <CharString index="249">
            167 callgsubr
            -55.99000549316406 -6 callgsubr
            -111 return
          </CharString>
          <CharString index="250">
            -83 107 callgsubr
            207 callsubr
            -145 255 -199 -16 callsubr
            return
          </CharString>
          <CharString index="251">
            52 callsubr
            63 callsubr
            return
          </CharString>
          <CharString index="252">
            -6 122 rlineto
            -283 return
          </CharString>
          <CharString index="253">
            -69 callsubr
            rmoveto
            return
          </CharString>
          <CharString index="254">
            13 callgsubr
            -47 return
          </CharString>
          <CharString index="255">
            98 callsubr
            66 -111 -104 -86 121 callgsubr
            -75 callgsubr
            return
          </CharString>
          <CharString index="256">
            924 rmoveto
            178 callgsubr
            return
          </CharString>
          <CharString index="257">
            200 callgsubr
            38.99000549316406 hhcurveto
            return
          </CharString>
          <CharString index="258">
            -89 -81 callsubr
            return
          </CharString>
          <CharString index="259">
            1711.979995727539 rmoveto
            -156 85 callsubr
            return
          </CharString>
          <CharString index="260">
            -68 callsubr
            hintmask 00000000
            return
          </CharString>
          <CharString index="261">
            hstemhm
            -85 callgsubr
            322 return
          </CharString>
          <CharString index="262">
            108.00999450683594 return
          </CharString>
          <CharString index="263">
            -216.99000549316406 return
          </CharString>
          <CharString index="264">
            -137.02000427246094 return
          </CharString>
          <CharString index="265">
            244.97999572753906 return
          </CharString>
          <CharString index="266">
            -77.99000549316406 return
          </CharString>
          <CharString index="267">
            404.99000549316406 return
          </CharString>
          <CharString index="268">
            216 callsubr
            -29 callgsubr
            hvcurveto
            -187 hlineto
            -48 -4 -19 -95 return
          </CharString>
          <CharString index="269">
            -100 -98 65 -70 65 callgsubr
            hvcurveto
            484.99000549316406 hmoveto
            104 -30 callsubr
            return
          </CharString>
          <CharString index="270">
            rmoveto
            -591.0099945068359 214 callsubr
            hlineto
            return
          </CharString>
          <CharString index="271">
            185 callsubr
            392.00999450683594 -94 callsubr
            return
          </CharString>
          <CharString index="272">
            93 410.99000549316406 216 296 216 hstem
            250.97999572753906 921 vstem
            return
          </CharString>
          <CharString index="273">
            rmoveto
            97 268 57 callsubr
            47 callsubr
            -94 -258.99000549316406 rlineto
            return
          </CharString>
          <CharString index="274">
            156 callsubr
            -22 callsubr
            -18 -51 return
          </CharString>
          <CharString index="275">
            -103 -19 130 188 callgsubr
            hhcurveto
            -153 return
          </CharString>
          <CharString index="276">
            rmoveto
            -110 1 -61 callsubr
            return
          </CharString>
          <CharString index="277">
            -75 callgsubr
            -83 return
          </CharString>
          <CharString index="278">
            0 callsubr
            -4 return
          </CharString>
          <CharString index="279">
            -274 -310 rlineto
            return
          </CharString>
          <CharString index="280">
            90.989990234375 return
          </CharString>
          <CharString index="281">
            182.99000549316406 return
          </CharString>
          <CharString index="282">
            -130.99000549316406 return
          </CharString>
          <CharString index="283">
            -126.02000427246094 return
          </CharString>
          <CharString index="284">
            106.99000549316406 return
          </CharString>
          <CharString index="285">
            -50 callsubr
            -99 return
          </CharString>
          <CharString index="286">
            -50 callsubr
            vhcurveto
            return
          </CharString>
          <CharString index="287">
            1 vhcurveto
            -92 -65 57 -16 callsubr
            103.00999450683594 74 33 83 -1 hvcurveto
            return
          </CharString>
          <CharString index="288">
            55 129 202 227 vvcurveto
            115.97999572753906 -59 155.02000427246094 return
          </CharString>
          <CharString index="289">
            233 -246 161 -29 callsubr
            -283 197 callsubr
            return
          </CharString>
          <CharString index="290">
            1236.990005493164 461.97999572753906 hstem
            137 callgsubr
            792 vstem
            return
          </CharString>
          <CharString index="291">
            rlineto
            -51 -37 192 callsubr
            return
          </CharString>
          <CharString index="292">
            hstemhm
            -70 callsubr
            return
          </CharString>
          <CharString index="293">
            hstemhm
            226 callgsubr
            222 callsubr
            return
          </CharString>
          <CharString index="294">
            265.00999450683594 return
          </CharString>
          <CharString index="295">
            336.02000427246094 return
          </CharString>
          <CharString index="296">
            hstemhm
            -83 callgsubr
            321 608.989990234375 188 callsubr
            return
          </CharString>
          <CharString index="297">
            237 callgsubr
            -83 callgsubr
            return
          </CharString>
          <CharString index="298">
            334.00999450683594 -135 111 -236.02000427246094 -2 vhcurveto
            endchar
          </CharString>
          <CharString index="299">
            -51 -60 1 callsubr
            hhcurveto
            return
          </CharString>
          <CharString index="300">
            79 callgsubr
            -98 rlineto
            46 return
          </CharString>
          <CharString index="301">
            vlineto
            -26.990005493164062 return
          </CharString>
          <CharString index="302">
            1306.990005493164 rmoveto
            return
          </CharString>
          <CharString index="303">
            -373 rlineto
            223 hlineto
            return
          </CharString>
          <CharString index="304">
            372 rlineto
            -223 hlineto
            return
          </CharString>
          <CharString index="305">
            -32 157 -209 hhcurveto
            hintmask 01011000
            -163 -136.99000549316406 -140 return
          </CharString>
          <CharString index="306">
            106 80 129 callgsubr
            return
          </CharString>
          <CharString index="307">
            118 callgsubr
            246 callgsubr
            return
          </CharString>
          <CharString index="308">
            -211 -29 callgsubr
            136 -176 210 callsubr
            hhcurveto
            return
          </CharString>
          <CharString index="309">
            -93 93 54 181 206 64 103 rlinecurve
            return
          </CharString>
          <CharString index="310">
            233.97999572753906 return
          </CharString>
          <CharString index="311">
            108.02000427246094 return
          </CharString>
          <CharString index="312">
            465.97999572753906 return
          </CharString>
          <CharString index="313">
            -107.99000549316406 return
          </CharString>
          <CharString index="314">
            68.02000427246094 return
          </CharString>
          <CharString index="315">
            58.97999572753906 return
          </CharString>
          <CharString index="316">
            14.990005493164062 return
          </CharString>
          <CharString index="317">
            235.99000549316406 return
          </CharString>
          <CharString index="318">
            56 callsubr
            111 -14.009994506835938 return
          </CharString>
          <CharString index="319">
            147 callgsubr
            327 437 -94 callsubr
            vstem
            return
          </CharString>
          <CharString index="320">
            141 callgsubr
            106 callgsubr
            hstemhm
            return
          </CharString>
          <CharString index="321">
            95 callgsubr
            177 callgsubr
            -44 callsubr
            return
          </CharString>
          <CharString index="322">
            93 callgsubr
            -120 -34 -65 13 9 -18 vhcurveto
            return
          </CharString>
          <CharString index="323">
            135 218 callgsubr
            return
          </CharString>
          <CharString index="324">
            156 -89 242 246 return
          </CharString>
          <CharString index="325">
            71 callsubr
            rlineto
            46 return
          </CharString>
          <CharString index="326">
            157 callsubr
            80 35 return
          </CharString>
          <CharString index="327">
            hstem
            99.97999572753906 return
          </CharString>
          <CharString index="328">
            -215 -70 -12 -64 rlineto
            return
          </CharString>
          <CharString index="329">
            969.0099945068359 return
          </CharString>
          <CharString index="330">
            222.99000549316406 return
          </CharString>
          <CharString index="331">
            216.99000549316406 return
          </CharString>
          <CharString index="332">
            102.99000549316406 return
          </CharString>
          <CharString index="333">
            73.99000549316406 return
          </CharString>
          <CharString index="334">
            131.02000427246094 return
          </CharString>
          <CharString index="335">
            -103.02000427246094 return
          </CharString>
          <CharString index="336">
            36.99000549316406 return
          </CharString>
          <CharString index="337">
            160.99000549316406 return
          </CharString>
          <CharString index="338">
            407.97999572753906 return
          </CharString>
          <CharString index="339">
            15.009994506835938 return
          </CharString>
          <CharString index="340">
            290 -81 callsubr
            return
          </CharString>
          <CharString index="341">
            10 -23 215.97999572753906 730.010009765625 233 return
          </CharString>
          <CharString index="342">
            -145.02000427246094 -135.99000549316406 -16 -168 hhcurveto
            return
          </CharString>
          <CharString index="343">
            0 -74 callgsubr
            hstem
            return
          </CharString>
          <CharString index="344">
            92 callgsubr
            endchar
          </CharString>
          <CharString index="345">
            218 callsubr
            37 return
          </CharString>
          <CharString index="346">
            197 callsubr
            -286 return
          </CharString>
          <CharString index="347">
            rlineto
            46 229 callsubr
            59 return
          </CharString>
          <CharString index="348">
            -150.02000427246094 return
          </CharString>
          <CharString index="349">
            228.99000549316406 return
          </CharString>
          <CharString index="350">
            157.97999572753906 return
          </CharString>
          <CharString index="351">
            91.00999450683594 return
          </CharString>
          <CharString index="352">
            276.99000549316406 return
          </CharString>
          <CharString index="353">
            1229 0 43 151.99000549316406 192 return
          </CharString>
          <CharString index="354">
            rmoveto
            -183 -96.99000549316406 -80 -52 -52 hvcurveto
            return
          </CharString>
          <CharString index="355">
            -169.99000549316406 rlineto
            return
          </CharString>
          <CharString index="356">
            -44 callsubr
            hstemhm
            return
          </CharString>
          <CharString index="357">
            rmoveto
            -173 -894 rlineto
            return
          </CharString>
          <CharString index="358">
            hstemhm
            99.97999572753906 330.99000549316406 return
          </CharString>
          <CharString index="359">
            -214 55 callsubr
            return
          </CharString>
          <CharString index="360">
            215.97999572753906 -529.0200042724609 hlineto
            return
          </CharString>
          <CharString index="361">
            99 72 callsubr
            -22 callsubr
            return
          </CharString>
          <CharString index="362">
            hstemhm
            209 callgsubr
            1180.990005493164 return
          </CharString>
          <CharString index="363">
            hstemhm
            210.97999572753906 -68 callsubr
            return
          </CharString>
          <CharString index="364">
            hstemhm
            161.99000549316406 -94 callsubr
            return
          </CharString>
          <CharString index="365">
            -60 -42 callsubr
            hhcurveto
            return
          </CharString>
          <CharString index="366">
            79 -71 -26 callgsubr
            return
          </CharString>
          <CharString index="367">
            -110 -67 callsubr
            return
          </CharString>
          <CharString index="368">
            -100.99000549316406 return
          </CharString>
          <CharString index="369">
            139.02000427246094 return
          </CharString>
          <CharString index="370">
            389.97999572753906 return
          </CharString>
          <CharString index="371">
            117.99000549316406 return
          </CharString>
          <CharString index="372">
            105.97999572753906 return
          </CharString>
          <CharString index="373">
            -485.99000549316406 return
          </CharString>
          <CharString index="374">
            858.0099945068359 return
          </CharString>
          <CharString index="375">
            -132.02000427246094 return
          </CharString>
          <CharString index="376">
            -97.02000427246094 return
          </CharString>
          <CharString index="377">
            41.99000549316406 return
          </CharString>
          <CharString index="378">
            -63 callgsubr
            484 745 rlineto
            return
          </CharString>
          <CharString index="379">
            -251 -146 -64 -155 vhcurveto
            endchar
          </CharString>
          <CharString index="380">
            -214 174 return
          </CharString>
        <CharString name=".notdef">
          552 0 118 callsubr
          973.989990234375 223 hstem
          232.97999572753906 229 960 227 vstem
          232.97999572753906 1415.990005493164 rmoveto
          -1415.990005493164 1416 1415.990005493164 -1416 vlineto
          705 -828.9900054931641 rmoveto
          -346.99000549316406 -368 -128 144 108 callgsubr
          342 -359 363.00999450683594 123 79 callgsubr
          357 -367.99000549316406 351.99000549316406 366 128 -124 -363.00999450683594 -357.99000549316406 363.00999450683594 -368 -122 -122 -362 368 rlineto
          endchar
        </CharString>
        <CharString name="A">
          -53 callsubr
          hstem
          81 callgsubr
          vstem
          1088.979995727539 hmoveto
          -104 callsubr
        </CharString>
        <CharString name="AE">
          80 callsubr
          hstemhm
          859.9900054931641 317.99000549316406 hintmask 11110100
          1177.990005493164 250.97999572753906 -19 callsubr
          hintmask 11101100
          343 726 rlineto
          -726 vlineto
          hintmask 11110100
          -343 hlineto
          endchar
        </CharString>
        <CharString name="AEacute">
          80 callsubr
          88 callgsubr
          hstemhm
          859.9900054931641 317.99000549316406 hintmask 11110110
          1416.990005493164 -70 callgsubr
          -239 -1598.020004272461 -19 callsubr
          hintmask 11101110
          343 726 rlineto
          -726 vlineto
          hintmask 11110110
          -343 hlineto
          endchar
        </CharString>
        <CharString name="Aacute">
          -53 callsubr
          130.02000427246094 43 hstem
          81 callgsubr
          vstem
          1081 -70 callgsubr
          7.9900054931640625 -1849 rmoveto
          -104 callsubr
        </CharString>
        <CharString name="Abreve">
          -53 callsubr
          75 85 callgsubr
          hstem
          81 callgsubr
          vstem
          709.9799957275391 1612.979995727539 rmoveto
          236 161 callsubr
          -153 hhcurveto
          -156 -12.990005493164062 95 48 -4.0099945068359375 hvcurveto
          -191 hlineto
          -203 -8 124 -143.02000427246094 248 hhcurveto
          379 -1612.979995727539 rmoveto
          -104 callsubr
        </CharString>
        <CharString name="Acircumflex">
          -53 callsubr
          111.010009765625 28 callsubr
          81 callgsubr
          hintmask 11101100
          710.9799957275391 1757.979995727539 rmoveto
          76 callsubr
          165 92 24 callgsubr
          hintmask 11110100
          172 callsubr
          hintmask 11101100
          162 43 callsubr
          222 198.99000549316406 rlineto
          378 -1757.979995727539 rmoveto
          -104 callsubr
        </CharString>
        <CharString name="Adieresis">
          -53 callsubr
          76 346 hstem
          271.99000549316406 134 callgsubr
          vstem
          441 220 callgsubr
          265 callsubr
          99 callsubr
          129 callgsubr
          118 callgsubr
          48 callgsubr
          -39 callgsubr
          106 callsubr
          102.02000427246094 hvcurveto
          523 hmoveto
          177 callsubr
          -30 callsubr
          -65 callgsubr
          104 97 -56 -6 callgsubr
          -110.99000549316406 118 callgsubr
          48 callgsubr
          -39 callgsubr
          106 callsubr
          101 hvcurveto
          79 callgsubr
          -1613.990005493164 rmoveto
          -104 callsubr
        </CharString>
        <CharString name="Agrave">
          -53 callsubr
          130.02000427246094 43 hstem
          81 callgsubr
          vstem
          709 21 callgsubr
          -27.009994506835938 163 callgsubr
          79 -11 callsubr
          379.99000549316406 -1542.979995727539 rmoveto
          -104 callsubr
        </CharString>
        <CharString name="Amacron">
          -53 callsubr
          148.010009765625 249 callsubr
          418.97999572753906 177 callgsubr
          hintmask 00000000
          hintmask 11111000
          1009.9900054931641 1891.979995727539 rmoveto
          -591.0200042724609 95 callgsubr
          591.0200042724609 -44 callsubr
          hlineto
          -61 callsubr
          -1891.979995727539 rmoveto
          -104 callsubr
        </CharString>
        <CharString name="Aogonek">
          91 37 callgsubr
          311.010009765625 -46 callsubr
          hstem
          941.9900054931641 158 callsubr
          vstem
          1186.979995727539 -223 rmoveto
          -6.9799957275390625 94 84.99000549316406 63 65 callgsubr
          66 rrcurveto
          70 hlineto
          -567.0099945068359 1537.990005493164 rlineto
          -322.00999450683594 hlineto
          -561.9700012207031 -1537.990005493164 rlineto
          341.9700012207031 hlineto
          65 callgsubr
          321.97999572753906 rlineto
          559 hlineto
          -85 callgsubr
          -321.97999572753906 rlineto
          69 hlineto
          -104.99000549316406 -58 -120.00999450683594 211 callgsubr
          128.99000549316406 -59 callgsubr
          126.02000427246094 -4 callgsubr
          -12 -42 -19 callgsubr
          -8 -39 hhcurveto
          1 callsubr
          -51 23 65 -3.0200042724609375 hvcurveto
          -687.9799957275391 774 rmoveto
          163 522 -46 callgsubr
          157 43 -157 164.99000549316406 -522 rlineto
          -414.99000549316406 hlineto
          endchar
        </CharString>
        <CharString name="Aring">
          91 0 43 278.97999572753906 229 1272 146 hstem
          366.97999572753906 184 315.99000549316406 183 vstem
          1088.979995727539 hmoveto
          156 callgsubr
          hlineto
          -536 1454 88 41 -7 callgsubr
          76.99000549316406 1 123 rlinecurve
          184 1 -129 -29 callsubr
          -208 hhcurveto
          -167.02000427246094 -175.97999572753906 -66 -204 113 callsubr
          -65 callsubr
          -117.99000549316406 53 -85.00999450683594 97 -45 -529.9799957275391 -1450.990005493164 rcurveline
          341.9700012207031 hlineto
          65 callgsubr
          321.97999572753906 rlineto
          559 hlineto
          -85 callgsubr
          -321.97999572753906 rlineto
          -380.99000549316406 1822.990005493164 rmoveto
          91 -1 67.99000549316406 120 callsubr
          -89 vvcurveto
          -104 -64 232 callgsubr
          108 callsubr
          212 callgsubr
          -209 -1272 rmoveto
          163 522 -46 callgsubr
          157 43 -157 164.99000549316406 -522 rlineto
          -414.99000549316406 hlineto
          endchar
        </CharString>
        <CharString name="Atilde">
          -53 callsubr
          64 -33 callgsubr
          81 callgsubr
          hintmask 11101100
          555.9900054931641 1734.979995727539 rmoveto
          hintmask 11110100
          136 callsubr
          24 -133 161 hhcurveto
          153.99000549316406 35 callgsubr
          -42 callsubr
          hhcurveto
          hintmask 11101100
          58 callsubr
          532.9900054931641 -1734.979995727539 rmoveto
          -104 callsubr
        </CharString>
        <CharString name="B">
          92 -14 219.99000549316406 95 callgsubr
          43 627.9799957275391 213 420 233 -54.94999694824219 -33 callsubr
          315 451 248 callgsubr
          hintmask 00000000
          hintmask 01101101
          -83 callgsubr
          1523 rmoveto
          -1523 161 vlineto
          hintmask 10110101
          73 callgsubr
          hintmask 10110110
          49 callgsubr
          hintmask 01101101
          -154 1 rlineto
          hintmask 10110110
          44 callgsubr
          hintmask 10110101
          26 callsubr
        </CharString>
        <CharString name="C">
          19 callsubr
          154 callgsubr
          vstem
          845.9900054931641 1537.990005493164 -100 callgsubr
        </CharString>
        <CharString name="CR">
          -1330 endchar
        </CharString>
        <CharString name="Cacute">
          19 callsubr
          130.02000427246094 43 154 callgsubr
          vstem
          689.9900054931641 -85 callsubr
          156 -130 -100 callgsubr
        </CharString>
        <CharString name="Ccaron">
          19 callsubr
          154 callgsubr
          vstem
          455.99000549316406 41 callgsubr
          390 -330 -100 callgsubr
        </CharString>
        <CharString name="Ccedilla">
          -31 54 callgsubr
          272 242.99000549316406 1055.989990234375 252 154 callgsubr
          326.010009765625 217 vstem
          1242.990005493164 325.97999572753906 rmoveto
          -39 -53 -162 -57 -138 hhcurveto
          -289.00999450683594 -173 -20 callgsubr
          316.00999450683594 320 191 188.99000549316406 247 -44 callsubr
          88 -58 -29 54 hvcurveto
          46 280 rlineto
          18 -96.00999450683594 -97 41 -221 hhcurveto
          -415 -331 -277 -504.00999450683594 -420.99000549316406 242.02000427246094 -296 398.99000549316406 -48.99000549316406 hvcurveto
          11 -30 6 -38 -4 -58 rrcurveto
          -103 -4 -52 -47 -65 hhcurveto
          -31.009994506835938 21 callsubr
          -20.009994506835938 -165 rlineto
          -16 25 97 -12 58 hhcurveto
          134 -15 callgsubr
          71.99000549316406 171 6 hvcurveto
          -68 callgsubr
          226 callsubr
          -11 99 callsubr
          158 callgsubr
          209 callgsubr
          140 10.009994506835938 244 callsubr
          229 callsubr
          75 30 -1 261.97999572753906 rcurveline
          endchar
        </CharString>
        <CharString name="Ccircumflex">
          19 callsubr
          111.010009765625 28 callsubr
          99.97999572753906 328 hintmask 00000000
          hintmask 11101000
          448 171 callgsubr
          hintmask 11011000
          70 callgsubr
          hintmask 11101000
          -273.97999572753906 -310 rlineto
          hintmask 11011000
          397.99000549316406 -111 -100 callgsubr
        </CharString>
        <CharString name="Cdotaccent">
          19 callsubr
          75 345 154 callgsubr
          229.010009765625 361 vstem
          657 -47 callsubr
          188.99000549316406 -239 -100 callgsubr
        </CharString>
        <CharString name="D">
          224 -41 callgsubr
          43 1254.979995727539 -58 callgsubr
          hintmask 00000000
          hintmask 01011100
          -83 callgsubr
          1521.990005493164 17 callgsubr
          hintmask 10101100
          -88 callgsubr
          hintmask 10011100
          -31 callsubr
          hintmask 01011100
          -151 hlineto
          hintmask 10101100
          525 -1294.009994506836 17 callsubr
        </CharString>
        <CharString name="Dcaron">
          224 -41 callgsubr
          43 1254.979995727539 -58 callgsubr
          hintmask 10101100
          263 callsubr
          80 callgsubr
          -220.02000427246094 181 -157 100 callgsubr
          rlineto
          hintmask 01011100
          -202 -345.99000549316406 17 callgsubr
          hintmask 10101100
          -88 callgsubr
          hintmask 10011100
          -31 callsubr
          hintmask 01011100
          -151 hlineto
          hintmask 10101100
          525 -1294.009994506836 17 callsubr
        </CharString>
        <CharString name="Dcroat">
          -87 callgsubr
        </CharString>
        <CharString name="E">
          -76 0 -66 callsubr
          111 callsubr
          -83 callgsubr
          1521.990005493164 -94 callgsubr
        </CharString>
        <CharString name="Eacute">
          -76 0 -66 callsubr
          146.01998901367188 43 111 callsubr
          558 99 callgsubr
          258 callgsubr
          98.97999572753906 33.02000427246094 180.02000427246094 161 87 112 rlinecurve
          -52 callgsubr
          -370.00999450683594 -146 -94 callgsubr
        </CharString>
        <CharString name="Ebreve">
          -76 0 -66 callsubr
          90.99998474121094 85 callgsubr
          111 callsubr
          334.99000549316406 194 callgsubr
          -29 callgsubr
          124.00999450683594 -143.02000427246094 141 callgsubr
          hhcurveto
          236 216 callsubr
          -8 60 callsubr
          -13 95 48 -4 hvcurveto
          -191 hlineto
          -147 -437 -94 callgsubr
        </CharString>
        <CharString name="Ecaron">
          -76 0 -66 callsubr
          111 callsubr
          323.99000549316406 -62 callgsubr
          -136 -345.99000549316406 -94 callgsubr
        </CharString>
        <CharString name="Ecircumflex">
          -76 0 -66 callsubr
          127.00999450683594 43 -40.99000549316406 43 40 callsubr
          hintmask 00000000
          hintmask 11110100
          315.97999572753906 171 callgsubr
          hintmask 11101100
          -34 callsubr
          hintmask 11110100
          172 callsubr
          hintmask 11101100
          -128 -127 -94 callgsubr
        </CharString>
        <CharString name="Edieresis">
          -76 0 -66 callsubr
          91.99998474121094 346 40 callsubr
          -245.00999450683594 134 callgsubr
          hintmask 00000000
          hintmask 11110110
          261 136 callgsubr
          106 callsubr
          -26 callgsubr
          105.99000549316406 99 callsubr
          -65 callgsubr
          104 97 -57.02000427246094 -6 callgsubr
          264 callgsubr
          118 callgsubr
          48 callgsubr
          -39 callgsubr
          vhcurveto
          524 hmoveto
          106 callsubr
          65 callgsubr
          177 callsubr
          242 callgsubr
          -65 callgsubr
          104 97 -56.02000427246094 -6 callgsubr
          -111 -104 48 callgsubr
          -39 callgsubr
          vhcurveto
          hintmask 11101000
          -597.0099945068359 -256 -94 callgsubr
        </CharString>
        <CharString name="Edotaccent">
          -76 0 -66 callsubr
          90.99998474121094 345 40 callsubr
          18.979995727539062 361 hintmask 00000000
          hintmask 11111100
          524.9799957275391 98 callgsubr
          102.02000427246094 265 callsubr
          83.00999450683594 90 callsubr
          118 callgsubr
          77 callgsubr
          vhcurveto
          hintmask 11101000
          -337 -255 -94 callgsubr
        </CharString>
        <CharString name="Egrave">
          -76 0 -66 callsubr
          146.01998901367188 43 111 callsubr
          698 1542.979995727539 rmoveto
          145.99000549316406 125.00999450683594 -27 11 callgsubr
          -217 175 callsubr
          -30 callsubr
          -11 callsubr
          -510.00999450683594 210 callgsubr
          -94 callgsubr
        </CharString>
        <CharString name="Emacron">
          -76 0 -66 callsubr
          164.00999450683594 205.99000549316406 40 callsubr
          71 callsubr
          177 callgsubr
          hintmask 00000000
          hintmask 11110100
          231 callsubr
          1891.979995727539 rmoveto
          214 callsubr
          -591.0099945068359 vlineto
          hintmask 11111000
          -220 -369.99000549316406 -94 callgsubr
        </CharString>
        <CharString name="Eng">
          233 callsubr
          hstem
          187.47000122070312 314.50999450683594 614.010009765625 315 vstem
          1431 408.99000549316406 rmoveto
          1113 -315 -757 vlineto
          35 -360 -112 222 -544.0099945068359 895 rlineto
          -308 hlineto
          1 -76 callgsubr
          rlineto
          314 740.9900054931641 hlineto
          -38 351 115 -231 526 -842.0200042724609 rlineto
          -139.97999572753906 -193 -146 -171 -49 vhcurveto
          70 57 callsubr
          269 12 257 162 63 229.99000549316406 rlinecurve
          37.99000549316406 134 225 callgsubr
          79 callgsubr
          187 vvcurveto
          endchar
        </CharString>
        <CharString name="Eogonek">
          -76 37 callgsubr
          311.010009765625 -66 callsubr
          -44 callgsubr
          189.99000549316406 245 vstem
          1061.990005493164 -311 rmoveto
          -67.02000427246094 -51 23 65 71 callgsubr
          hvcurveto
          -7 94 84.99000549316406 63 101 66 rrcurveto
          61 250.97999572753906 -675 408 467.99000549316406 241 -467.99000549316406 378 31 callgsubr
          -76 callgsubr
          724 hlineto
          -105 -58 -120.00999450683594 211 callgsubr
          129 -59 callgsubr
          43 callgsubr
          hhcurveto
          -63 callgsubr
          201 callgsubr
          -41.97999572753906 -44.02000427246094 -8 -38.99000549316406 hhcurveto
          endchar
        </CharString>
        <CharString name="Eth">
          -87 callgsubr
        </CharString>
        <CharString name="Euro">
          174 -28 242 callsubr
          270.989990234375 192 193 192 253.010009765625 210 callsubr
          hstem
          279.97999572753906 332 vstem
          1320 284 rmoveto
          -46 1 callsubr
          -126 -37 268 callsubr
          hhcurveto
          -201.99000549316406 -75 callgsubr
          225 callsubr
          168 -46 hvcurveto
          452 192 -481 hlineto
          -3 40.02000427246094 -1 231 callgsubr
          43 vvcurveto
          24 1 22 1 22 vhcurveto
          532 192 -496 hlineto
          59.99000549316406 175 127.02000427246094 -30 callsubr
          161 -1 165.99000549316406 -1 65 -25 -7 callsubr
          -42 53 243.02000427246094 rcurveline
          -85.00999450683594 18.990005493164062 159 callsubr
          50 -222 -8 -321 -11 -233 265 callgsubr
          -92 -312.00999450683594 rrcurveto
          -194 -192 158 hlineto
          -5 -44 -2 -44.99000549316406 -48 vvcurveto
          -19 0 -19 1 -18 vhcurveto
          -188.99000549316406 -192 227 callgsubr
          hlineto
          -314.97999572753906 70 216 -184.99000549316406 357 hhcurveto
          285 -7 callgsubr
          208 callgsubr
          12 86 hvcurveto
          -59.99000549316406 234 rlineto
          endchar
        </CharString>
        <CharString name="F">
          -185 0 43 142 callgsubr
          158 callsubr
          399.02000427246094 2 callsubr
          hstem
          -83 callgsubr
          322 vstem
          -83 callgsubr
          1521.990005493164 86 callgsubr
        </CharString>
        <CharString name="G">
          -75 callsubr
          hstem
          -24 callgsubr
          vstem
          837 820 93 callsubr
          -106 callgsubr
          -535 vlineto
          endchar
        </CharString>
        <CharString name="Gbreve">
          -75 callsubr
          76 85 callgsubr
          hstem
          -24 callgsubr
          vstem
          839.9900054931641 220 callgsubr
          236 134.99000549316406 143 203 94 callgsubr
          60 callsubr
          -13 95 48 -4 hvcurveto
          -191 hlineto
          233 callgsubr
          71 callgsubr
          -793.9900054931641 93 callsubr
          -106 callgsubr
          -535 vlineto
          endchar
        </CharString>
        <CharString name="Gcaron">
          -75 callsubr
          hstem
          -24 callgsubr
          vstem
          951.9900054931641 1576.979995727539 rmoveto
          267 293 -154 91 -222.99000549316406 -180.99000549316406 -220 180.99000549316406 -157 -92 268 -292 rlineto
          219 hlineto
          -115 -756.9900054931641 93 callsubr
          -106 callgsubr
          -535 vlineto
          endchar
        </CharString>
        <CharString name="Gcircumflex">
          -75 callsubr
          112.010009765625 43 -40.99000549316406 43 hstemhm
          -24 callgsubr
          hintmask 11101110
          840.9900054931641 1758.990005493164 rmoveto
          221 -199 165 92.02000427246094 24 callgsubr
          hintmask 11110110
          172 callsubr
          hintmask 11101110
          162 -90.00999450683594 222 199 rlineto
          -4 -938.9900054931641 93 callsubr
          -106 callgsubr
          -535 vlineto
          endchar
        </CharString>
        <CharString name="Gcommaaccent">
          164 -58 callsubr
          456.989990234375 243.97999572753906 42 callgsubr
          243.00999450683594 465.99000549316406 252 251 callsubr
          326.00999450683594 231 82.010009765625 301.99000549316406 hintmask 01111111
          837 820 93 callsubr
          -106 callgsubr
          -535 vlineto
          270 callsubr
          -905.9900054931641 rmoveto
          -184 -98 rlineto
          -50 vlineto
          28 -13 34 -53.99000549316406 -53 vvcurveto
          -74 -12 -42 -17.990005493164062 -20 vhcurveto
          -76 callsubr
          vlineto
          hintmask 10111111
          110.99000549316406 -44.02000427246094 rlineto
          42 15.020004272460938 204 callsubr
          -85 callgsubr
          162 vvcurveto
          hintmask 01111111
          40 callgsubr
          -42 10.020004272460938 vhcurveto
          endchar
        </CharString>
        <CharString name="Gdotaccent">
          -75 callsubr
          76 345 251 callsubr
          235.00999450683594 361 43.010009765625 301.99000549316406 hintmask 00000000
          hintmask 11111110
          837.9799957275391 220 callgsubr
          106 83.00999450683594 148 callsubr
          -100 70 -64 102 hvcurveto
          -0.9900054931640625 -793.9900054931641 93 callsubr
          hintmask 11101010
          -106 callgsubr
          vlineto
          hintmask 11111110
          -535 hlineto
          endchar
        </CharString>
        <CharString name="Gtilde">
          -75 callsubr
          65.010009765625 224.99000549316406 -193.98001098632812 43 208 callsubr
          222 hstemhm
          -24 callgsubr
          hintmask 11101111
          686 1735.990005493164 rmoveto
          hintmask 11110011
          136 callsubr
          87 callgsubr
          131 45 hvcurveto
          -126 -52 callsubr
          184 callsubr
          hintmask 11101111
          -102.99000549316406 -29 130 -162 hhcurveto
          -153 -104 -100 -126 -44 hvcurveto
          193 callsubr
          37 59 56 58 hhcurveto
          151 -915.9900054931641 93 callsubr
          -106 callgsubr
          -535 vlineto
          endchar
        </CharString>
        <CharString name="H">
          271 0 43 607.9900054931641 239 591.0399932861328 -12 callsubr
          592.9900054931641 313.99000549316406 vstem
          -83 callgsubr
          1521.990005493164 73 callsubr
        </CharString>
        <CharString name="Hbar">
          291 0 43 577.9900054931641 233 191 192 -192 476.99000549316406 hstemhm
          -83 callgsubr
          322 601 321.97999572753906 hintmask 11101100
          1599 1236.990005493164 rmoveto
          -166 hlineto
          hintmask 11011100
          285 -321.99000549316406 vlineto
          hintmask 11101100
          -285 -601 vlineto
          hintmask 11011100
          285 -322 vlineto
          hintmask 11101100
          -285 -164 -192 164 -1044.990005493164 322 620.9900054931641 601 -620.9900054931641 321.99000549316406 1044.990005493164 166 192 vlineto
          -488 -383 rmoveto
          -601 191 601 -191 hlineto
          endchar
        </CharString>
        <CharString name="Hcircumflex">
          271 0 43 607.9900054931641 239 591.0399932861328 -102 callsubr
          127 43 -40.99000549316406 43 40 callsubr
          592.9900054931641 313.99000549316406 hintmask 00000000
          hintmask 11110110
          415.99000549316406 171 callgsubr
          hintmask 11101110
          -34 callsubr
          hintmask 11110110
          172 callsubr
          hintmask 11101110
          -228 -127 73 callsubr
        </CharString>
        <CharString name="I">
          -10 callsubr
          56 callgsubr
          47 callgsubr
          1521.990005493164 -73 callsubr
          endchar
        </CharString>
        <CharString name="I.uc">
          -77 callgsubr
        </CharString>
        <CharString name="IJ">
          190 -81 callsubr
          81 callsubr
          479.989990234375 320 vstem
          47 callgsubr
          1521.990005493164 -39 callsubr
        </CharString>
        <CharString name="IJ_acutecomb">
          190 -81 callsubr
          165.00999450683594 43 -42.00999450683594 43 hstemhm
          76 callgsubr
          479.989990234375 320 hintmask 11011100
          966.9799957275391 1687.979995727539 rmoveto
          146 57 callsubr
          99 33 180 161 87 111.99000549316406 rlinecurve
          156 callsubr
          131 -18 -51 -249.02000427246094 -235 -28 -26.009994506835938 rlinecurve
          hintmask 11101100
          -747.9900054931641 -0.9900054931640625 rmoveto
          258 callgsubr
          99 33 180 161.02000427246094 87 111.99000549316406 rlinecurve
          -217 131 -18 -51 -249 -235 63 callgsubr
          -18 -165 -39 callsubr
        </CharString>
        <CharString name="Iacute">
          -608 90 callgsubr
          47 callgsubr
          320 vstem
          118 callsubr
          -85 callsubr
          -18 -146 -73 callsubr
          endchar
        </CharString>
        <CharString name="Ibreve">
          -10 callsubr
          173 callsubr
          85 callgsubr
          56 callgsubr
          -67 callgsubr
          194 callgsubr
          -29 callgsubr
          123.97999572753906 41 callsubr
          -12.990005493164062 95 48 113 callsubr
          -190.97000122070312 hlineto
          204.97999572753906 -437 -73 callsubr
          endchar
        </CharString>
        <CharString name="Icircumflex">
          -10 callsubr
          127 28 callsubr
          76 callgsubr
          hintmask 00000000
          hintmask 11101000
          -23 171 callgsubr
          hintmask 11011000
          161.99000549316406 43 callsubr
          221.99000549316406 198.99000549316406 76 callsubr
          165 75 callsubr
          hintmask 11101000
          -273.97999572753906 -310 rlineto
          hintmask 11011000
          223.99000549316406 -127 -73 callsubr
          endchar
        </CharString>
        <CharString name="Idieresis">
          -10 callsubr
          91.989990234375 346 hstemhm
          -78 355 -76.00999450683594 320 -75 353.99000549316406 hintmask 00000000
          hintmask 11110000
          -78 136 callgsubr
          -99 -6 callgsubr
          -65 -85 callgsubr
          106 80 78.00999450683594 104 97 -57 179 callsubr
          hintmask 11101000
          524 hmoveto
          106 callsubr
          65 callgsubr
          vhcurveto
          hintmask 11100100
          140 callgsubr
          hvcurveto
          hintmask 11101000
          -34 callgsubr
          hvcurveto
          -245 -256 -73 callsubr
          endchar
        </CharString>
        <CharString name="Idotaccent">
          -77 callgsubr
        </CharString>
        <CharString name="Igrave">
          -608 90 callgsubr
          47 callgsubr
          320 vstem
          358.99000549316406 21 callgsubr
          -27.020004272460938 11 callgsubr
          -216.97999572753906 175 callsubr
          -61 callsubr
          -11 callsubr
          -158 210 callgsubr
          -73 callsubr
          endchar
        </CharString>
        <CharString name="Imacron">
          -10 callsubr
          164 -44 callsubr
          56 callgsubr
          69 126 callsubr
          132 -369.99000549316406 -73 callsubr
          endchar
        </CharString>
        <CharString name="Iogonek">
          -599 37 callgsubr
          311.010009765625 -78 callsubr
          hstemhm
          40.97999572753906 245 -84.989990234375 320 hintmask 11101000
          407 -311 rmoveto
          1 callsubr
          -51 23 65 -3 hvcurveto
          225 callgsubr
          94 85 63 101 66 rrcurveto
          56 25 callsubr
          -76 callgsubr
          55.99000549316406 hlineto
          hintmask 11110000
          -105 -58 -120 -108 9 241 callsubr
          249 callgsubr
          -59 callgsubr
          126.02000427246094 -4 callgsubr
          hintmask 11101000
          -12 -42 -19 callgsubr
          -8 -39 hhcurveto
          endchar
        </CharString>
        <CharString name="Itilde">
          -10 callsubr
          79.989990234375 -33 callgsubr
          76 callgsubr
          hintmask 11011000
          -59 callgsubr
          1730.990005493164 rmoveto
          124.99000549316406 -98 240 callsubr
          55.99000549316406 58 hhcurveto
          hintmask 11101000
          114.02000427246094 23.979995727539062 89 callsubr
          227 callsubr
          44.99000549316406 hvcurveto
          66 callgsubr
          -52 callsubr
          rlineto
          -51 -36.99000549316406 -51.02000427246094 258 callsubr
          hintmask 11011000
          213 callgsubr
          -103.99000549316406 -100 66 callgsubr
          -44 hvcurveto
          273.97999572753906 -209 -73 callsubr
          endchar
        </CharString>
        <CharString name="J">
          -532 1481.0299987792969 -102 callsubr
          hstem
          278.99000549316406 320 vstem
          -9.990005493164062 -164 rmoveto
          76.97999572753906 -168 171 6 289 126 callgsubr
          rlinecurve
          28 145 -8.990005493164062 6 callsubr
          -4.0200042724609375 97 callsubr
          115 callgsubr
        </CharString>
        <CharString name="Jcircumflex">
          -532 1481.0299987792969 -102 callsubr
          128 28 callsubr
          278.99000549316406 320 hintmask 00000000
          hintmask 11010000
          47.97999572753906 1649.990005493164 rmoveto
          hintmask 10110000
          162 -90.00999450683594 222 199 221 -199 165 92.02000427246094 24 callgsubr
          hintmask 11010000
          172 callsubr
          -57.970001220703125 -1813.990005493164 rmoveto
          76.97999572753906 -168 rlineto
          hintmask 10110000
          171 6 289 126 callgsubr
          rrcurveto
          28 145 -8.990005493164062 6 callsubr
          -4.0200042724609375 97 callsubr
          hintmask 11010000
          115 callgsubr
        </CharString>
        <CharString name="K">
          114 0 43 1438.0299987792969 -12 callsubr
          vstem
          -48 callgsubr
          endchar
        </CharString>
        <CharString name="Kcommaaccent">
          114 -45 callgsubr
          1438.0299987792969 116 callsubr
          177.99000549316406 -20 callgsubr
          hintmask 01111100
          -48 callgsubr
          -540 -195.99000549316406 49 callsubr
          -52 callsubr
          -85 callgsubr
          162 vvcurveto
          hintmask 01111100
          -15 callgsubr
          -42 callsubr
          -23 callsubr
          endchar
        </CharString>
        <CharString name="L">
          -210 0 -71 callsubr
          1239.0399932861328 -12 callsubr
          vstem
          -83 callgsubr
          1521.990005493164 115 callsubr
        </CharString>
        <CharString name="Lacute">
          -210 0 -71 callsubr
          1239.0399932861328 -102 callsubr
          88 callgsubr
          111 callsubr
          204 callgsubr
          -85 callsubr
          -19 -146 115 callsubr
        </CharString>
        <CharString name="Lcaron">
          -210 0 -71 callsubr
          1239.0399932861328 -12 callsubr
          353.99000549316406 239 vstem
          845.9900054931641 1037.990005493164 rmoveto
          133 -28 rlineto
          52 60 207 callsubr
          75 callgsubr
          221 callsubr
          47 callsubr
          -33 27.020004272460938 145 callgsubr
          -10.020004272460938 57 callsubr
          -13 -61 8 -23 rcurveline
          -658 484 115 callsubr
        </CharString>
        <CharString name="Lcommaaccent">
          -210 -58 callsubr
          472.97999572753906 -71 callsubr
          1239.0399932861328 116 callsubr
          -46 callgsubr
          -20 callgsubr
          hintmask 01111000
          -83 callgsubr
          1521.990005493164 -64 callsubr
          332 -2037.979995727539 rmoveto
          hintmask 10111100
          -74 callsubr
          134 callsubr
          hintmask 01111100
          28 -13 34 -60 callgsubr
          hintmask 01111000
          101 callsubr
        </CharString>
        <CharString name="Ldot">
          80 0 -71 callsubr
          409.989990234375 405.00999450683594 424.0400085449219 -12 callsubr
          376.99000549316406 388.99000549316406 vstem
          -83 callgsubr
          1521.990005493164 -64 callsubr
          695.0099945068359 -677.0099945068359 rmoveto
          -110 1 79 -83 107 251 callgsubr
          98.02000427246094 115 96 callgsubr
        </CharString>
        <CharString name="Lslash">
          -210 0 -71 callsubr
          1239.0399932861328 -12 callsubr
          vstem
          506 -71 callsubr
          rmoveto
          478 vlineto
          378 139 -65 171.99000549316406 -313 -116 rlineto
          607.0099945068359 -318.00999450683594 -724.0099945068359 vlineto
          -163 -59.99000549316406 65 -170 98 36 rlineto
          -604 866 -71 callsubr
          -547.9900054931641 vlineto
          endchar
        </CharString>
        <CharString name="M">
          149 callgsubr
          hstemhm
          69.97999572753906 1746 hintmask 00111000
          232 146 callsubr
          hintmask 01011000
          82 callgsubr
          hintmask 10011000
          114 callsubr
          hintmask 00111000
          31 callsubr
        </CharString>
        <CharString name="N">
          290 18 callsubr
          vstem
          1135.979995727539 146 callsubr
          -757 vlineto
          29 -366 -115 228 -96 callsubr
          hlineto
          endchar
        </CharString>
        <CharString name="NULL">
          -1330 endchar
        </CharString>
        <CharString name="Nacute">
          292 0 43 1438.0299987792969 40.96000671386719 146.00999450683594 43 74 callsubr
          vstem
          1180 -70 callgsubr
          -44.02000427246094 -327 rmoveto
          -757 vlineto
          29 -366 -115 228 -96 callsubr
          hlineto
          endchar
        </CharString>
        <CharString name="Ncaron">
          292 18 callsubr
          vstem
          920.9900054931641 1576 rmoveto
          101 callgsubr
          193 callgsubr
          219 hlineto
          215 -54 rmoveto
          -757 vlineto
          29 -366 -115 228 -96 callsubr
          hlineto
          endchar
        </CharString>
        <CharString name="Ncommaaccent">
          292 -45 callgsubr
          1438.0299987792969 -33 callsubr
          295.99000549316406 231.00999450683594 -20 callgsubr
          189.99998474121094 295.99000549316406 hintmask 01111110
          1135.979995727539 146 callsubr
          -757 vlineto
          29 -366 -115 228 -96 callsubr
          hlineto
          -298.97999572753906 -1607.990005493164 rmoveto
          -184.02000427246094 -98 rlineto
          -50 vlineto
          28 -13 34.02000427246094 -60 callgsubr
          -76 callsubr
          vlineto
          hintmask 10111110
          240 callgsubr
          270 callsubr
          15.020004272460938 155 callsubr
          -85 callgsubr
          162 vvcurveto
          hintmask 01111110
          40 callgsubr
          120 callsubr
          10.020004272460938 vhcurveto
          endchar
        </CharString>
        <CharString name="Ntilde">
          292 -81 callsubr
          79.989990234375 -33 callgsubr
          -24 callsubr
          hintmask 11011100
          654.9900054931641 1734.979995727539 rmoveto
          hintmask 11101100
          136 callsubr
          24 -133 161 hhcurveto
          153.99000549316406 35 callgsubr
          -42 callsubr
          hhcurveto
          hintmask 11011100
          58 callsubr
          480.99000549316406 -212.99000549316406 rmoveto
          -757 vlineto
          29 -366 -115 228 -96 callsubr
          hlineto
          endchar
        </CharString>
        <CharString name="O">
          -81 callgsubr
          hstem
          98 -55 callgsubr
          741 -55 callgsubr
          vstem
          98 768.9799957275391 -105 callgsubr
        </CharString>
        <CharString name="OE">
          803 -99 callgsubr
          -9 callgsubr
          -221 250.97999572753906 412.010009765625 120 callgsubr
          374.00999450683594 2 callsubr
          -225.99000549316406 -71 callsubr
          hstemhm
          265 callsubr
          324.99000549316406 623.0099945068359 -73 callgsubr
          hintmask 01110110
          1372 250.97999572753906 rmoveto
          412.02000427246094 449.99000549316406 120 callgsubr
          -449.99000549316406 374 31 callgsubr
          vlineto
          hintmask 10101110
          -30 vlineto
          -63 32 -80 15 -91 -1 -399.00999450683594 -4 -304.99000549316406 -263 -10.020004272460938 -502 -8.990005493164062 -454.99000549316406 257.97999572753906 -333 435.02000427246094 3.0200042724609375 100 1 93 268 callgsubr
          70.99000549316406 38.99000549316406 rrcurveto
          hintmask 01110110
          -41.97999572753906 993.0200042724609 250.97999572753906 -675 vlineto
          hintmask 10101110
          -568.0200042724609 -29.990005493164062 rmoveto
          -240.99000549316406 268 callsubr
          215.99000549316406 321 425 201 113 188 114 71 -50 -55.99000549316406 48.99000549316406 hvcurveto
          -871 vlineto
          266 callgsubr
          -59 48 callgsubr
          -24.990005493164062 -108.00999450683594 hhcurveto
          endchar
        </CharString>
        <CharString name="Oacute">
          -81 callgsubr
          130.01998901367188 43 hstem
          98 -55 callgsubr
          741 -55 callgsubr
          vstem
          680.9799957275391 3 callsubr
          -249 -235 -28.020004272460938 -76 callsubr
          rlinecurve
          -582.9900054931641 -899.0099945068359 -105 callgsubr
        </CharString>
        <CharString name="Obreve">
          -81 callgsubr
          74.99998474121094 85 callgsubr
          hstem
          98 -55 callgsubr
          741 -55 callgsubr
          vstem
          457.99000549316406 194 callgsubr
          -8 124 -143.02000427246094 248 hhcurveto
          236 134.99000549316406 218 callgsubr
          94 callgsubr
          60 callsubr
          -13 95 48 -67 callgsubr
          hvcurveto
          -191 hlineto
          -360 -1190.009994506836 -105 callgsubr
        </CharString>
        <CharString name="Ocircumflex">
          -81 callgsubr
          111.00999450683594 28 callsubr
          98 -55 callgsubr
          741 -55 callgsubr
          hintmask 00000000
          hintmask 11101100
          438.99000549316406 171 callgsubr
          hintmask 11011100
          -34 callsubr
          hintmask 11101100
          172 callsubr
          hintmask 11011100
          -340.99000549316406 -880 -105 callgsubr
        </CharString>
        <CharString name="Odieresis">
          -81 callgsubr
          75.99998474121094 346 hstemhm
          98 -55 callgsubr
          119 callsubr
          354.97999572753906 169 354.02000427246094 -94.00999450683594 -55 callgsubr
          hintmask 00000000
          hintmask 11101100
          384 136 callgsubr
          106 callsubr
          -85 callgsubr
          199 callsubr
          -104 79 callsubr
          -39 callgsubr
          vhcurveto
          523.9799957275391 hmoveto
          -99 -6 callgsubr
          -65 101 177 callsubr
          -30 callsubr
          125 callgsubr
          hintmask 11110010
          -809.9900054931641 -1009.0099945068359 -105 callgsubr
        </CharString>
        <CharString name="Ograve">
          -81 callgsubr
          130.01998901367188 43 hstem
          98 -55 callgsubr
          741 -55 callgsubr
          vstem
          820.9799957275391 21 callgsubr
          -26.990005493164062 11 callgsubr
          -217 175 callsubr
          242 callgsubr
          -109.02000427246094 197 -167 -29 callsubr
          -30 rlinecurve
          -722.9900054931641 -774 -105 callgsubr
        </CharString>
        <CharString name="Ohungarumlaut">
          -81 callgsubr
          129.00999450683594 43 hstem
          98 -55 callgsubr
          741 -55 callgsubr
          vstem
          449.99000549316406 272 callgsubr
          242 callgsubr
          35 127 141 82 121 callsubr
          rlinecurve
          -230 252 callgsubr
          513 hmoveto
          230 callsubr
          -115 82 35 130 141 77 115 rlinecurve
          -226.02000427246094 -37 callsubr
          -17.979995727539062 -51 -178 270 callgsubr
          -28 -26 rlinecurve
          -865 -898.0099945068359 -105 callgsubr
        </CharString>
        <CharString name="Omacron">
          -81 callgsubr
          148.00999450683594 249 callsubr
          98 -55 callgsubr
          103.989990234375 177 callgsubr
          46.00001525878906 -55 callgsubr
          hintmask 00000000
          hintmask 11111100
          530.9799957275391 1891.979995727539 rmoveto
          95 callgsubr
          591.0200042724609 -44 callsubr
          -591.0200042724609 vlineto
          -432.99000549316406 -1123 rmoveto
          -9.009994506835938 -467.99000549316406 264 -326 438 9.020004272460938 rrcurveto
          hintmask 11110100
          406 7.9900054931640625 290 245 10 525.9900054931641 9.009994506835938 469.00999450683594 -264.00999450683594 318 -421 -12 rrcurveto
          hintmask 11111100
          -412 -12 -301 -230 -10 -527.0099945068359 rrcurveto
          hintmask 11110100
          1070 4.0200042724609375 rmoveto
          -381.00999450683594 -143.99000549316406 -170.99000549316406 -226.02000427246094 -249 -122 237 300 391 175 147 212 238 116 -224 -298.97999572753906 vhcurveto
          endchar
        </CharString>
        <CharString name="Oslash">
          -81 callgsubr
          106 callgsubr
          hstemhm
          98 -55 callgsubr
          741 -55 callgsubr
          hintmask 00000000
          hintmask 10111000
          1120.990005493164 1480.990005493164 166 callsubr
          hintmask 11011000
          -32 callsubr
          hintmask 10111000
          215 callgsubr
          hintmask 11011000
          -49 callgsubr
        </CharString>
        <CharString name="Oslashacute">
          -81 callgsubr
          106 callgsubr
          88 callgsubr
          hstemhm
          98 -55 callgsubr
          741 -55 callgsubr
          hintmask 11011100
          1111 1849 rmoveto
          -52 callgsubr
          145.99000549316406 -16 callgsubr
          99 33.02000427246094 180.02000427246094 161 87 112 rlinecurve
          hintmask 10111100
          10 -368 166 callsubr
          hintmask 11011100
          -32 callsubr
          hintmask 10111100
          215 callgsubr
          hintmask 11011100
          -49 callgsubr
        </CharString>
        <CharString name="Otilde">
          -81 callgsubr
          63.99998474121094 -33 callgsubr
          98 -55 callgsubr
          741 -55 callgsubr
          hintmask 11011100
          389 1730.990005493164 rmoveto
          193 callsubr
          37 59 55.99000549316406 58 hhcurveto
          hintmask 11101100
          136 callsubr
          24 -133 230 callsubr
          hhcurveto
          154 35 callgsubr
          1 callsubr
          hhcurveto
          hintmask 11011100
          -103 -29 130 -162 32 callsubr
          -291 -962.0099945068359 -105 callgsubr
        </CharString>
        <CharString name="P">
          29 0 43 417.97999572753906 241 605.010009765625 -20 callgsubr
          -56.95001220703125 116 callsubr
          466.97999572753906 316 hintmask 00000000
          hintmask 11011100
          -83 callgsubr
          1521.990005493164 103 callgsubr
          394 215 204 348 hvcurveto
          hintmask 11101100
          255 callgsubr
          vhcurveto
          hintmask 11011100
          235 callsubr
          -96.00999450683594 hlineto
          128 callgsubr
          hintmask 11101100
          50 callgsubr
          hintmask 11011100
          272 callsubr
        </CharString>
        <CharString name="Q">
          265 -326 245 1376.990005493164 -71 callsubr
          hstem
          98 -55 callgsubr
          741 -55 callgsubr
          vstem
          1347.990005493164 -81 rmoveto
          -166 -132 7 82.97999572753906 -63 hvcurveto
          299.99000549316406 226 callsubr
          202.02000427246094 243 7.9900054931640625 437 9.009994506835938 469.00999450683594 -264.00999450683594 318 -421 -12 -412 -12 -301 -230 -10 -527.0099945068359 -29 callgsubr
          -439.99000549316406 233 -315 392 -27.990005493164062 rrcurveto
          -240.99000549316406 76.99000549316406 222 -71 296 hhcurveto
          95 116 30 20.990005493164062 29 hvcurveto
          219.02000427246094 vlineto
          -15.009994506835938 -46 -75 callgsubr
          -10 -54 hhcurveto
          -921 838.9799957275391 rmoveto
          391 175 147 212 238 116 -224 -298.97999572753906 -381.00999450683594 -143.99000549316406 -170.99000549316406 -226.02000427246094 -249 -122 237 300 vhcurveto
          endchar
        </CharString>
        <CharString name="R">
          34 callsubr
          1317.990005493164 110 -69 callgsubr
          hintmask 11011100
          -84 callsubr
          hintmask 11101100
          -79 callgsubr
          endchar
        </CharString>
        <CharString name="Racute">
          105 0 23 callsubr
          88 callgsubr
          40 callsubr
          471.97999572753906 309 hintmask 11101110
          1124.990005493164 1849 rmoveto
          155 callgsubr
          -17.990005493164062 -51 -249.02000427246094 -59 callsubr
          193 -1739 -69 callgsubr
          hintmask 11011110
          -84 callsubr
          hintmask 11101110
          -79 callgsubr
          endchar
        </CharString>
        <CharString name="Rcaron">
          34 callsubr
          866 1576 rmoveto
          63 callsubr
          -154 -21 callsubr
          -222.99000549316406 -181 -220.02000427246094 181 -157 100 callgsubr
          193 callgsubr
          219.02000427246094 hlineto
          452 -1466 -69 callgsubr
          hintmask 11011100
          -84 callsubr
          hintmask 11101100
          -79 callgsubr
          endchar
        </CharString>
        <CharString name="Rcommaaccent">
          105 -559.9900054931641 43 1.010009765625 43 472.97999572753906 68 callsubr
          166.99000549316406 -20 callgsubr
          73.99998474121094 309 hintmask 0111101110000000
          1317.990005493164 110 -69 callgsubr
          hintmask 0111011110000000
          -84 callsubr
          hintmask 0111101110000000
          -79 callgsubr
          289 -1368.990005493164 rmoveto
          -184.02000427246094 -98 rlineto
          -50 vlineto
          189 callgsubr
          -13 34 -60 callgsubr
          -76 callsubr
          vlineto
          hintmask 1011101110000000
          -51 callgsubr
          hintmask 0111101110000000
          -15 callgsubr
          -42 callsubr
          -23 callsubr
          endchar
        </CharString>
        <CharString name="S">
          -6 callsubr
          hstem
          52 callgsubr
          vstem
          151.97999572753906 226 callsubr
          -23 callgsubr
          -103 callgsubr
          72 callgsubr
          -255 rlineto
          endchar
        </CharString>
        <CharString name="Sacute">
          -6 callsubr
          130.02999877929688 43 hstem
          52 callgsubr
          vstem
          506.97999572753906 3 callsubr
          -249 -235 -28.020004272460938 -76 callsubr
          rlinecurve
          -355 -1594 -23 callgsubr
          -103 callgsubr
          72 callgsubr
          -255 rlineto
          endchar
        </CharString>
        <CharString name="Scaron">
          -6 callsubr
          hstem
          52 callgsubr
          vstem
          273 80 callgsubr
          -220 181 -157 100 callgsubr
          rlineto
          -121.02000427246094 -1793.990005493164 -23 callgsubr
          -103 callgsubr
          72 callgsubr
          -255 rlineto
          endchar
        </CharString>
        <CharString name="Scedilla">
          -123 54 callgsubr
          272 43 -43 9 callgsubr
          -241.98001098632812 43 1265.9700012207031 237.99000549316406 184 callgsubr
          86.99998474121094 217 57.010009765625 320 hintmask 00000000
          hintmask 10101111
          1131.990005493164 231 callsubr
          rmoveto
          247 -179 109 -239 126.00999450683594 vhcurveto
          -101 callgsubr
          72 callgsubr
          -255 rlineto
          hintmask 11001110
          49 -30 156 -44.99000549316406 170 -12 107 callsubr
          -29 6 -37.99000549316406 -4 -55 23 callgsubr
          hintmask 10011110
          -68 callgsubr
          76 -11 82 -27 54 rrcurveto
          hintmask 10101111
          250 47 callsubr
          162 145 239.99000549316406 vvcurveto
          endchar
        </CharString>
        <CharString name="Scircumflex">
          -6 callsubr
          111.02000427246094 43 -40.99000549316406 43 hstemhm
          52 callgsubr
          hintmask 00000000
          hintmask 11101100
          223 callgsubr
          171 callgsubr
          hintmask 11011100
          -34 callsubr
          hintmask 11101100
          172 callsubr
          hintmask 11011100
          65 callsubr
          -1575 -23 callgsubr
          -103 callgsubr
          72 callgsubr
          -255 rlineto
          endchar
        </CharString>
        <CharString name="Scommaaccent">
          -123 -58 callsubr
          456.989990234375 248.97999572753906 1066.990005493164 237.99000549316406 184 callgsubr
          92.99998474121094 -20 callgsubr
          37.02000427246094 320 hintmask 01111010
          151.97999572753906 226 callsubr
          -23 callgsubr
          -103 callgsubr
          72 callgsubr
          -255 rlineto
          362 -589.9799957275391 rmoveto
          hintmask 10111110
          -74 callsubr
          134 callsubr
          hintmask 01111110
          28 -13 34 -60 callgsubr
          hintmask 01111010
          101 callsubr
        </CharString>
        <CharString name="T">
          -80 0 84 callsubr
          205 callsubr
          1277.990005493164 -13 callgsubr
          endchar
        </CharString>
        <CharString name="Tbar">
          -80 0 43 553.9900054931641 199 482 2 callsubr
          hstem
          205 callsubr
          320 vstem
          1219.990005493164 1277.990005493164 rmoveto
          244 -1190.009994506836 -244 436 -482 -273 -199 273 -596.9900054931641 320 596.9900054931641 289.02000427246094 199 -289.02000427246094 482 434.00999450683594 vlineto
          endchar
        </CharString>
        <CharString name="Tcaron">
          -80 0 84 callsubr
          158 callsubr
          28 callgsubr
          219.02000427246094 hlineto
          63 callsubr
          -154 -21 callsubr
          -222.99000549316406 -181 -220.02000427246094 181 -157 100 callgsubr
          rlineto
          221 -589.9900054931641 -13 callgsubr
          endchar
        </CharString>
        <CharString name="Thorn">
          29 0 43 213.97999572753906 243.00999450683594 546.0000152587891 120 callgsubr
          194.04998779296875 -12 callsubr
          460.97999572753906 315 vstem
          748.9900054931641 1286.979995727539 rmoveto
          -86 -84 94 callgsubr
          -4.0200042724609375 -73 hvcurveto
          247 -318.00999450683594 105 callsubr
          265.99000549316406 vlineto
          -3 40 61.99000549316406 -6 94 hhcurveto
          376 204 204 344 331 -206.99000549316406 151 -326 hvcurveto
          -87 -786.9900054931641 rmoveto
          72 callgsubr
          -57 0 10 -53.99000549316406 hvcurveto
          518 vlineto
          46.99000549316406 12 58 4 48 2 rrcurveto
          200 7.9900054931640625 -52 callsubr
          -86 265 callgsubr
          vvcurveto
          -258.00999450683594 -140.99000549316406 -19 callgsubr
          -164 vhcurveto
          endchar
        </CharString>
        <CharString name="U">
          -72 callgsubr
          hstem
          -43 callsubr
          vstem
          150 652.9799957275391 -105 callsubr
        </CharString>
        <CharString name="Uacute">
          -72 callgsubr
          88 callgsubr
          hstem
          -43 callsubr
          vstem
          625.9900054931641 -85 callsubr
          -476 -1015.0099945068359 -105 callsubr
        </CharString>
        <CharString name="Ubreve">
          -72 callgsubr
          173 callsubr
          85 callgsubr
          hstem
          -43 callsubr
          vstem
          402.97999572753906 194 callgsubr
          94 callgsubr
          123.99000549316406 41 callsubr
          -12.979995727539062 95 48 113 callsubr
          -191 hlineto
          -252.99000549316406 -1306.009994506836 -105 callsubr
        </CharString>
        <CharString name="Ucircumflex">
          -72 callgsubr
          127 28 callsubr
          -43 callsubr
          hintmask 00000000
          hintmask 11101100
          384 171 callgsubr
          hintmask 11011100
          70 callgsubr
          hintmask 11101100
          -273.97999572753906 -310 rlineto
          hintmask 11011100
          -234 -996 -105 callsubr
        </CharString>
        <CharString name="Udieresis">
          -72 callgsubr
          91.989990234375 346 hstemhm
          150.97999572753906 315 -136.989990234375 134 callgsubr
          -143.99000549316406 312.99000549316406 hintmask 11110010
          -55 callgsubr
          136 callgsubr
          106 callsubr
          -26 callgsubr
          vhcurveto
          hintmask 11101010
          199 callsubr
          hvcurveto
          hintmask 11110010
          -34 callgsubr
          hvcurveto
          hintmask 11110100
          524 hmoveto
          106 callsubr
          101 vhcurveto
          hintmask 11110010
          66 callsubr
          142 callsubr
          hvcurveto
          hintmask 11110100
          -34 callgsubr
          hvcurveto
          hintmask 11110010
          -703 -1125.009994506836 -105 callsubr
        </CharString>
        <CharString name="Ugrave">
          -72 callgsubr
          88 callgsubr
          hstem
          -43 callsubr
          vstem
          765.9900054931641 21 callgsubr
          -27.009994506835938 163 callgsubr
          79 -11 callsubr
          -616 -890 -105 callsubr
        </CharString>
        <CharString name="Uhungarumlaut">
          -72 callgsubr
          145 43 hstem
          -43 callsubr
          vstem
          395 272 callgsubr
          79 35 127 141 82 121 callsubr
          rlinecurve
          -229.99000549316406 252 callgsubr
          512.9900054931641 hmoveto
          161 -115 82 35 94 callsubr
          141 77 115 rlinecurve
          -226 -37 callsubr
          -18 -51 -177.99000549316406 270 callgsubr
          -28.020004272460938 -26 rlinecurve
          -757.9900054931641 -1014.0099945068359 -105 callsubr
        </CharString>
        <CharString name="Umacron">
          -72 callgsubr
          164 249 callsubr
          150.97999572753906 315 10.010009765625 142 callgsubr
          -67 callgsubr
          312.99000549316406 hintmask 00000000
          hintmask 11101000
          476 126 callsubr
          hintmask 11110100
          -326 -1239 -105 callsubr
        </CharString>
        <CharString name="Uogonek">
          195 37 callgsubr
          295.02000427246094 253.99000549316406 1243.0299987792969 -102 callsubr
          hstem
          150.97999572753906 315 155.010009765625 245 197 312.99000549316406 vstem
          1062.990005493164 146 callsubr
          87 callsubr
          -338.99000549316406 -104 -93 -192 -195 -108 76.99000549316406 355 1 vhcurveto
          -61 callgsubr
          852.0099945068359 rlineto
          -315 hlineto
          -65 callsubr
          -869.0099945068359 rlineto
          -402.99000549316406 -1 153 -265.97999572753906 455.99000549316406 hhcurveto
          18 hlineto
          -88 -60 -75 43 callsubr
          8 -130 249 callgsubr
          -93 126 -4 callgsubr
          -12 120 callsubr
          -44 -8 -39 hhcurveto
          1 callsubr
          -51 23 65 71 callgsubr
          hvcurveto
          95 -7 callgsubr
          81 -6 callgsubr
          61.99000549316406 vhcurveto
          253.99000549316406 77 128 227 callgsubr
          335.02000427246094 vvcurveto
          881.9900054931641 -313 vlineto
          endchar
        </CharString>
        <CharString name="Uring">
          195 -99 callgsubr
          253.99000549316406 1176.979995727539 107 -107 152 256 146 hstemhm
          150.97999572753906 315 -41.989990234375 183.99000549316406 316.00999450683594 174 callsubr
          -19 callgsubr
          312.99000549316406 hintmask 11011001
          424 1698.979995727539 rmoveto
          -180.97999572753906 -3 43 callgsubr
          228 callsubr
          215.02000427246094 hhcurveto
          -17 callsubr
          166 76 204 -61 callgsubr
          hvcurveto
          184 1 -129 -29 callsubr
          -207.99000549316406 hhcurveto
          -167 -176 -66 -204 -4 hvcurveto
          hintmask 10110110
          500 94 callgsubr
          rmoveto
          -104 -64 232 callgsubr
          -95.00999450683594 212 callgsubr
          91 -1 207 callsubr
          120 callsubr
          -89 vvcurveto
          hintmask 11011001
          -774 -1038.009994506836 -105 callsubr
        </CharString>
        <CharString name="Utilde">
          -72 callgsubr
          79.989990234375 -33 callgsubr
          -43 callsubr
          hintmask 11011100
          333.99000549316406 1730.990005493164 130 callsubr
          55.99000549316406 58 hhcurveto
          hintmask 11101100
          114.00999450683594 23.990005493164062 -133 161 111 callgsubr
          227 callsubr
          45.02000427246094 hvcurveto
          -126.00999450683594 -52 callsubr
          rlineto
          -51 -36.99000549316406 -51.02000427246094 258 callsubr
          hintmask 11011100
          -103 -29 130 -162.02000427246094 hhcurveto
          174 callgsubr
          -104 -100 66 callgsubr
          -44 hvcurveto
          -183.99000549316406 -1078.009994506836 -105 callsubr
        </CharString>
        <CharString name="V">
          56 -6 43 1444.0299987792969 -102 callsubr
          hstem
          -4.9900054931640625 1395.9700012207031 vstem
          -5 146 callsubr
          565.9799957275391 -1527.990005493164 rlineto
          270.00999450683594 hlineto
          559.9900054931641 1527.990005493164 rlineto
          -338.99000549316406 hlineto
          -269 -831 -82 -290 -81 290 -284 831 rlineto
          -340.99000549316406 hlineto
          endchar
        </CharString>
        <CharString name="W">
          -31 callgsubr
          185 callgsubr
          hintmask 10011000
          1649.990005493164 1521.990005493164 250 callsubr
          hintmask 00111000
          -45 callsubr
          hintmask 01011000
          -93 callsubr
          hintmask 10011000
          181 callgsubr
        </CharString>
        <CharString name="Wacute">
          -31 callgsubr
          146.00999450683594 168 callgsubr
          hintmask 10011100
          1335.990005493164 -70 callgsubr
          314 -327 250 callsubr
          hintmask 00111100
          -45 callsubr
          hintmask 01011100
          -93 callsubr
          hintmask 10011100
          181 callgsubr
        </CharString>
        <CharString name="Wcircumflex">
          -31 callgsubr
          127 43 -40.99000549316406 168 callgsubr
          hintmask 10010110
          965.9799957275391 1757.979995727539 rmoveto
          76 callsubr
          165 75 callsubr
          hintmask 10011010
          172 callsubr
          hintmask 10010110
          162.02000427246094 43 callsubr
          221.99000549316406 198.99000549316406 rlineto
          684.0099945068359 -235.99000549316406 250 callsubr
          hintmask 00110110
          -45 callsubr
          hintmask 01010110
          -93 callsubr
          hintmask 10010110
          181 callgsubr
        </CharString>
        <CharString name="Wdieresis">
          -31 callgsubr
          91.989990234375 346 hstemhm
          526.9900054931641 134 callgsubr
          hintmask 10011110
          695.9900054931641 220 callgsubr
          106 80 78.00999450683594 104 97 -57 178 callsubr
          109 callgsubr
          -65 -26 callgsubr
          hvcurveto
          523 hmoveto
          140 callgsubr
          -104 -83 -80.02000427246094 -101.99000549316406 106 callsubr
          65 callgsubr
          hvcurveto
          431 -92 250 callsubr
          hintmask 00111110
          -45 callsubr
          hintmask 01011110
          -93 callsubr
          hintmask 10011110
          181 callgsubr
        </CharString>
        <CharString name="Wgrave">
          -31 callgsubr
          146.00999450683594 168 callgsubr
          hintmask 10011100
          963.9900054931641 22 callgsubr
          686 210 callgsubr
          250 callsubr
          hintmask 00111100
          -45 callsubr
          hintmask 01011100
          -93 callsubr
          hintmask 10011100
          181 callgsubr
        </CharString>
        <CharString name="X">
          46 -81 callsubr
          -39.96000671386719 -62 callsubr
          47 callsubr
          1312.009994506836 hintmask 10110000
          879.9799957275391 751.9799957275391 rmoveto
          hintmask 11010000
          454 770.0099945068359 rlineto
          -336 hlineto
          -220 -402 -73.99000549316406 -136 rlineto
          hintmask 10110000
          -313.02000427246094 539.0200042724609 -348 -1 448 -736.0099945068359 -459 -785.9799957275391 rlineto
          332 hlineto
          309 555.9900054931641 74 -131 244 -424.97999572753906 rlineto
          353.02000427246094 hlineto
          -464.02000427246094 751.9799957275391 rlineto
          endchar
        </CharString>
        <CharString name="Y">
          151 callsubr
          hstem
          104 callsubr
          vstem
          1291 1521.990005493164 -88 callsubr
          -5 callsubr
          96 callsubr
        </CharString>
        <CharString name="Yacute">
          -89 90 callgsubr
          104 callsubr
          vstem
          1008.9900054931641 -70 callgsubr
          282.00999450683594 -327 -88 callsubr
          -5 callsubr
          96 callsubr
        </CharString>
        <CharString name="Ycircumflex">
          151 callsubr
          127 28 callsubr
          104 callsubr
          hintmask 11011000
          639 1757.979995727539 rmoveto
          76 callsubr
          164.99000549316406 92 -275.99000549316406 308 rlineto
          -220 hlineto
          hintmask 11101000
          172 callsubr
          hintmask 11011000
          162 43 callsubr
          222 198.99000549316406 rlineto
          652 -235.99000549316406 -88 callsubr
          -5 callsubr
          96 callsubr
        </CharString>
        <CharString name="Ydieresis">
          151 callsubr
          91.989990234375 346 hstemhm
          199.99000549316406 355 -94.010009765625 318.99000549316406 -55.99000549316406 353.99000549316406 hintmask 00000000
          hintmask 11110100
          368.99000549316406 220 callgsubr
          106 80 78.00999450683594 104 97 -57 178 callsubr
          -6 callgsubr
          -65 -85 callgsubr
          hvcurveto
          523 hmoveto
          107 79 -65 callgsubr
          104 97 -56 178 callsubr
          -6 callgsubr
          -65 100.99000549316406 hvcurveto
          399.00999450683594 -92 -88 callsubr
          hintmask 11101000
          -5 callsubr
          hintmask 11110100
          96 callsubr
        </CharString>
        <CharString name="Ygrave">
          -89 90 callgsubr
          104 callsubr
          vstem
          636.9900054931641 21 callgsubr
          -27 11 callgsubr
          -217 175 callsubr
          -61 callsubr
          -11 callsubr
          654.0099945068359 210 callgsubr
          -88 callsubr
          -5 callsubr
          96 callsubr
        </CharString>
        <CharString name="Z">
          34 callgsubr
          255 callsubr
          hintmask 11010000
          209 callgsubr
          -16 callsubr
          -17 callgsubr
          hintmask 10110000
          671.9900054931641 1106 rlineto
          hintmask 11010000
          10 callgsubr
        </CharString>
        <CharString name="Zacute">
          34 callgsubr
          88 callgsubr
          255 callsubr
          hintmask 11011000
          534 -85 callsubr
          -480.00999450683594 -1584 -17 callgsubr
          hintmask 10111000
          671.9900054931641 1106 rlineto
          hintmask 11011000
          10 callgsubr
        </CharString>
        <CharString name="Zcaron">
          34 callgsubr
          255 callsubr
          hintmask 11010000
          299.99000549316406 28 callgsubr
          118 callsubr
          hlineto
          101 callgsubr
          rlineto
          -246 -1784 -17 callgsubr
          hintmask 10110000
          671.9900054931641 1106 rlineto
          hintmask 11010000
          10 callgsubr
        </CharString>
        <CharString name="Zdotaccent">
          34 callgsubr
          192 callgsubr
          500.97999572753906 361 hintmask 11011000
          500.97999572753906 98 callgsubr
          -26 callgsubr
          82 callsubr
          vhcurveto
          -447 -1693 -17 callgsubr
          hintmask 10111000
          671.9900054931641 1106 rlineto
          hintmask 11011000
          10 callgsubr
        </CharString>
        <CharString name="a">
          -87 callsubr
          hstem
          -85 callgsubr
          322 333.989990234375 -68 callsubr
          vstem
          606.9900054931641 1161.990005493164 -107 callgsubr
        </CharString>
        <CharString name="aacute">
          -87 callsubr
          hstem
          -85 callgsubr
          322 333.989990234375 -68 callsubr
          vstem
          1047.979995727539 26 callgsubr
          -441 -471 -107 callgsubr
        </CharString>
        <CharString name="abreve">
          -87 callsubr
          135.00999450683594 67 callgsubr
          154 callsubr
          -161.010009765625 196 299 -68 callsubr
          hintmask 11110110
          627 1297 rmoveto
          224.99000549316406 170 callgsubr
          -8 hvcurveto
          -193 hlineto
          -19 callgsubr
          -5 -12 -16 callgsubr
          174 callgsubr
          hhcurveto
          -157 -8 124 45 -4 hvcurveto
          -196.02000427246094 hlineto
          -211 94 callgsubr
          100 callsubr
          206 callgsubr
          236.02000427246094 hhcurveto
          -20.009994506835938 -135 38 callsubr
          hintmask 11111010
          3 callgsubr
          hintmask 11110110
          234 callgsubr
          hintmask 11111010
          -76 callsubr
          -967 rmoveto
          -89 -68 51 111 85.00999450683594 52 29 47 17.990005493164062 hvcurveto
          22.020004272460938 47 -37 callsubr
          18.990005493164062 75 hhcurveto
          -272 vlineto
          -27 -21 -86 -36 -70 hhcurveto
          endchar
        </CharString>
        <CharString name="acircumflex">
          -87 callsubr
          hstem
          -85 callgsubr
          322 333.989990234375 -68 callsubr
          vstem
          628.9799957275391 1481.990005493164 rmoveto
          233 -246 161.02000427246094 1 callgsubr
          -283.02000427246094 62 callsubr
          -373 156 -89 -71 callsubr
          246 rlineto
          -22 -320 -107 callgsubr
        </CharString>
        <CharString name="acute">
          -665 1634 43 hstem
          -20 callsubr
          555 vstem
          -20 callsubr
          1388.990005493164 rmoveto
          149 83 callsubr
          65 callsubr
          -106 rlinecurve
          endchar
        </CharString>
        <CharString name="acute.cap">
          -678 1668 43 hstem
          84.99000549316406 512 vstem
          84.99000549316406 -85 callsubr
          endchar
        </CharString>
        <CharString name="adieresis">
          -87 callsubr
          147.00999450683594 228 callgsubr
          154 callsubr
          -215 42 callgsubr
          135.99998474121094 42 callgsubr
          -284.99000549316406 -68 callsubr
          hintmask 11110101
          374.99000549316406 1309 rmoveto
          -15 callsubr
          71 callsubr
          64.99000549316406 173 callgsubr
          101 hvcurveto
          hintmask 11110110
          485.00999450683594 hmoveto
          2 callgsubr
          -110.02000427246094 116 callgsubr
          133 callsubr
          65 callgsubr
          hvcurveto
          hintmask 11111001
          -253 -147 -107 callgsubr
        </CharString>
        <CharString name="ae">
          -14 callgsubr
          1753.990005493164 709 -98 callgsubr
        </CharString>
        <CharString name="aeacute">
          -14 callgsubr
          1361.979995727539 26 callgsubr
          392 -924 -98 callgsubr
        </CharString>
        <CharString name="agrave">
          -87 callsubr
          hstem
          -85 callgsubr
          322 333.989990234375 -68 callsubr
          vstem
          598 1250.979995727539 195 callgsubr
          137.02000427246094 -117 -52 callsubr
          -141 169 48 callgsubr
          107 callgsubr
          68 -145 255 -199 -63 callgsubr
          64 callsubr
          rlinecurve
          107 callsubr
          85 callsubr
          -107 callgsubr
        </CharString>
        <CharString name="amacron">
          -87 callsubr
          257.00999450683594 205.99000549316406 154 callsubr
          -93 142 callgsubr
          -164.00001525878906 153 callsubr
          hintmask 11110100
          921.9900054931641 1624.990005493164 rmoveto
          -590.9900054931641 95 callgsubr
          142 callgsubr
          -44 callsubr
          hlineto
          hintmask 11111010
          -315 -463 -107 callgsubr
        </CharString>
        <CharString name="ampersand">
          212 -99 callgsubr
          181.99000549316406 -181.99000549316406 232.97999572753906 1120.000015258789 208.99000549316406 hstemhm
          87.97999572753906 295.00999450683594 -126.989990234375 278.99000549316406 320 257.97999572753906 37.02000427246094 253.99000549316406 hintmask 00000000
          hintmask 10101110
          1267 227 callgsubr
          rmoveto
          -16 callsubr
          83 53 116 164 vvcurveto
          -21 callgsubr
          -13 57 225 callgsubr
          29 vhcurveto
          -258 hlineto
          5 -28 19 -59 -93 vvcurveto
          -76 -26.009994506835938 -71.99000549316406 -46 -52 vhcurveto
          -97 225 callsubr
          -120 145 -69.02000427246094 89 rrcurveto
          hintmask 01101100
          194 100 127 116.97999572753906 251 vvcurveto
          198 -158 166 -256 -268 -174.97999572753906 -140 -238 -170 70.97999572753906 -111 -7 callsubr
          -98 vhcurveto
          hintmask 01110110
          -177 -83 -134 -127 -180 vvcurveto
          -266 217 -148.99000549316406 430 106 112 32.99000549316406 40 90.99000549316406 vhcurveto
          72 callgsubr
          73.00999450683594 85 -27.970001220703125 121 hhcurveto
          61 49.99000549316406 7 7.9900054931640625 32 hvcurveto
          hintmask 10101110
          166.99000549316406 vlineto
          -87.02000427246094 -68 callgsubr
          -55.99000549316406 12 -55.99000549316406 32 rrcurveto
          hintmask 01101100
          -567.0099945068359 1124 rmoveto
          113 42 -93 -65 -143 245 callgsubr
          48 callgsubr
          160 callgsubr
          -62.02000427246094 hvcurveto
          -88 122 -39 50 110 vvcurveto
          101 208 callgsubr
          63 99 vhcurveto
          -12 -1120.009994506836 rmoveto
          hintmask 01110100
          269 callgsubr
          -80 77 122 -63 callgsubr
          209 callgsubr
          -7 callgsubr
          92.02000427246094 49 hvcurveto
          87 -114.02000427246094 126 -150 225 callsubr
          -113 rrcurveto
          hintmask 01101100
          -10 -42 13 callgsubr
          -6 -65 hhcurveto
          endchar
        </CharString>
        <CharString name="aogonek">
          -107 37 callgsubr
          295.02000427246094 210.97999572753906 -197.97999572753906 43 489.9700012207031 176 218.010009765625 237.99000549316406 154 callsubr
          168 245 -79.010009765625 153 callsubr
          hintmask 11011010
          957.9900054931641 -311 rmoveto
          1 callsubr
          -51 23 65 71 callgsubr
          hvcurveto
          -6 86.02000427246094 70.99000549316406 59.99000549316406 90 61 rrcurveto
          hintmask 11011101
          -65 callgsubr
          760.9700012207031 hlineto
          331.02000427246094 -146 86 -317.00999450683594 -56 callsubr
          vhcurveto
          64 callgsubr
          -46 callgsubr
          97 156.02000427246094 37 -7 callgsubr
          hhcurveto
          193 33 -24 -122 hvcurveto
          -72 vlineto
          -144 -187 -10 -55.99000549316406 -126 hvcurveto
          -123 -55 -76 -92 -138.02000427246094 vvcurveto
          -215 148 -155.97000122070312 223.99000549316406 135 100.99000549316406 55.99000549316406 55.99000549316406 61 vhcurveto
          -8 vlineto
          hintmask 10111001
          -51 11 -27 20.990005493164062 -12.979995727539062 vhcurveto
          hintmask 10111010
          -104 -59 -116 -106 9.009994506835938 -148 249 callgsubr
          -59 callgsubr
          126 -4 callgsubr
          hintmask 11011010
          -12 120 callsubr
          -44 -8 -39 hhcurveto
          hintmask 11011101
          -377 506 rmoveto
          -89 -68 51 111 85.00999450683594 52 29 47 17.990005493164062 hvcurveto
          22.020004272460938 47 -37 callsubr
          18.990005493164062 75 hhcurveto
          -272 vlineto
          -27 -21 -86 -36 -70 hhcurveto
          endchar
        </CharString>
        <CharString name="approxequal">
          118 220.99000549316406 2 callsubr
          -85.00001525878906 242 92.010009765625 2 callsubr
          -85.00001525878906 242 hstemhm
          -44 callsubr
          1036 hintmask 01011000
          -44 callsubr
          895 rmoveto
          130 -128 rlineto
          47.99000549316406 44 58 58 94 158 107 callsubr
          -158.99000549316406 207 hhcurveto
          hintmask 01101000
          169 134 118.00999450683594 93 28 hvcurveto
          -116 138 rlineto
          -47 -43 -63 -58 -95 -147.99000549316406 198 callsubr
          -80 -25 hvcurveto
          5 -493.02000427246094 rmoveto
          130 -128 rlineto
          48 -46 callgsubr
          58 58 94 158 9.020004272460938 -158.99000549316406 204 callgsubr
          hhcurveto
          hintmask 10011000
          169 134 264 callsubr
          93 28 hvcurveto
          -116 138.02000427246094 rlineto
          -47 -43 -63 -58 108 callsubr
          -148 198 callsubr
          -80.02000427246094 158 callgsubr
          hvcurveto
          endchar
        </CharString>
        <CharString name="aring">
          -87 callsubr
          151.00999450683594 152 275.989990234375 146 154 callsubr
          -140 183.99000549316406 289.99998474121094 -68 callsubr
          -285.99998474121094 174 callsubr
          hintmask 1111101100000000
          622 1312.990005493164 rmoveto
          hintmask 1111101010000000
          -17 callsubr
          166 86 204 -61 callgsubr
          236 callgsubr
          -167 -176 -76 -204 -67 callgsubr
          hvcurveto
          hintmask 1111101100000000
          -181 -3 126.00999450683594 -36 callgsubr
          215 hhcurveto
          hintmask 1111101010000000
          -68 callgsubr
          427.99000549316406 rmoveto
          91 -1 68.00999450683594 -52 85 callsubr
          vvcurveto
          -104 -64 -31 -95 180 callsubr
          hintmask 1111110100000000
          -18 -578.9900054931641 -107 callgsubr
        </CharString>
        <CharString name="asciicircum">
          43 1490.0199890136719 -102 callsubr
          hstem
          152.99000549316406 1067 vstem
          1219.990005493164 489.97999572753906 rmoveto
          -420 1041 rlineto
          -227 hlineto
          -420 -1041 rlineto
          281 hlineto
          252.99000549316406 674 252 -674 rlineto
          281 hlineto
          endchar
        </CharString>
        <CharString name="asciitilde">
          118 648.9900054931641 2 callsubr
          -84.99000549316406 -71 callsubr
          hstemhm
          207.99000549316406 1031 hintmask 01100000
          207.99000549316406 829.9900054931641 rmoveto
          94 callsubr
          -128 rlineto
          48 44 58 58 94 158 107 callsubr
          -159 207 hhcurveto
          hintmask 10100000
          169 134 118 93 189 callgsubr
          hvcurveto
          -116.02000427246094 138 rlineto
          -47 119 callsubr
          -63 -58 -95.00999450683594 -148 -1 callsubr
          157 -209 hhcurveto
          hintmask 01100000
          -163 -137 -140 -80 -24.990005493164062 hvcurveto
          endchar
        </CharString>
        <CharString name="asterisk">
          18 601.9799957275391 1133.990005493164 hstemhm
          560.9799957275391 214.50999450683594 -203.99998474121094 213.99000549316406 hintmask 10100000
          579.9900054931641 895 rmoveto
          -17 -293.00999450683594 210 callsubr
          1 -27 293.00999450683594 -5 30.990005493164062 -38 129 -4 22 rlinecurve
          141 -129.99000549316406 233 -162.02000427246094 121 callsubr
          214.02000427246094 -257.97999572753906 122.97999572753906 -183 49 181 55 252.99000549316406 -22 callsubr
          -111.99000549316406 206 rlineto
          hintmask 11000000
          -242 -166 -23 122 callsubr
          -94 -100 -16 -14.009994506835938 rlinecurve
          43 184.02000427246094 17 287.99000549316406 rlineto
          -236 hlineto
          175 callgsubr
          -293.00999450683594 4 -1 callsubr
          39 -128 3 -22 rlinecurve
          157 callsubr
          94 callsubr
          -243 164 -110 -207.99000549316406 257 -128 28 -11 134 -29 20.009994506835938 -29 callgsubr
          rlinecurve
          -181 -53 -252 -134.99000549316406 117 -207 rlineto
          hintmask 10100000
          235 166 134.99000549316406 138 119 callsubr
          -185 rlineto
          endchar
        </CharString>
        <CharString name="at">
          898 -468 177 286.00999450683594 47 callgsubr
          -200.99000549316406 226.97999572753906 661.0000152587891 229 callgsubr
          286.00999450683594 -17 callsubr
          hstemhm
          159 callgsubr
          211 234.989990234375 243.00999450683594 407.00001525878906 213.5399932861328 366.4499969482422 208.99000549316406 hintmask 1101111110000000
          1268 181.99000549316406 rmoveto
          -121 107 callsubr
          57 -65.97999572753906 123 hhcurveto
          294.00999450683594 304.99000549316406 272.97999572753906 537 483 -338 255 -464 -596.0099945068359 -487 -438.99000549316406 -664 -625.9900054931641 400 -282.00999450683594 482.02000427246094 250 162 66 60 100 hvcurveto
          -43 158.99000549316406 rlineto
          119 callsubr
          -80 -112 -65 -257 hhcurveto
          -333 -357.99000549316406 180 559 570 402 348 452 312 299 -112 -479.00999450683594 -350.99000549316406 -171 -228 -9 callsubr
          -50.02000427246094 -12.990005493164062 51 181 47 callsubr
          hvcurveto
          34 188 60 295 34 145 -185 -31 rcurveline
          39.02000427246094 -56 43 callsubr
          16 -86 hhcurveto
          -410.00999450683594 -175 -365 -275 -7 hvcurveto
          -300.00999450683594 -6 160.02000427246094 -144.97999572753906 133 hhcurveto
          157 119.00999450683594 114.99000549316406 244 callgsubr
          87 hvcurveto
          -1 -31.009994506835938 1 -23.979995727539062 1 -21.009994506835938 rrcurveto
          hintmask 1011111110000000
          -294.00999450683594 40 rmoveto
          -75 -41 74.02000427246094 262 callgsubr
          2 hvcurveto
          195 -68 callgsubr
          129 222 185 hhcurveto
          226 callsubr
          59 -20.009994506835938 -34 25 hvcurveto
          269 callgsubr
          -31 -192 -382.02000427246094 -138 hhcurveto
          endchar
        </CharString>
        <CharString name="atilde">
          -87 callsubr
          181.00999450683594 -33 callgsubr
          -85 callgsubr
          322 333.989990234375 -68 callsubr
          hintmask 11101010
          459 1475.990005493164 rmoveto
          hintmask 11110010
          136 callsubr
          87 callgsubr
          130.99000549316406 44.99000549316406 hvcurveto
          66 callgsubr
          204 callsubr
          184 callsubr
          hintmask 11101010
          183 callgsubr
          -19 callgsubr
          hvcurveto
          151 callgsubr
          59 56 58 hhcurveto
          244 callgsubr
          -314 38 callsubr
          hintmask 11101110
          3 callgsubr
          hintmask 11101010
          234 callgsubr
          hintmask 11101110
          -76 callsubr
          -967 rmoveto
          -89 -68 51 111 85.00999450683594 52 29 47 17.990005493164062 hvcurveto
          22.020004272460938 47 -37 callsubr
          18.990005493164062 75 hhcurveto
          -272 vlineto
          -27 -21 -86 -36 -70 hhcurveto
          endchar
        </CharString>
        <CharString name="b">
          234 callsubr
          hstem
          8 callsubr
          438.00999450683594 327 vstem
          791 1155.990005493164 39 callgsubr
          -1596.990005493164 vlineto
          158 callgsubr
          34 239 -61.99000549316406 208 -71 callgsubr
        </CharString>
        <CharString name="backslash">
          -466 -363 1962 hstem
          13.979995727539062 816 vstem
          268.97999572753906 1599 rmoveto
          -255 hlineto
          561.0099945068359 -1962 rlineto
          255 hlineto
          -561.0099945068359 1962 rlineto
          endchar
        </CharString>
        <CharString name="bar">
          -465 -187 1967 166 callgsubr
          -1967 255 1967 -255 vlineto
          endchar
        </CharString>
        <CharString name="braceleft">
          127 callgsubr
          323.99000549316406 269.97999572753906 vstem
          554.9900054931641 886.9900054931641 rmoveto
          24 27 209 callsubr
          34.02000427246094 137 callgsubr
          vvcurveto
          571 262 171 vlineto
          11 -86 -117 13 -109 hhcurveto
          -154 222 callgsubr
          245 callgsubr
          -197 hvcurveto
          266 callsubr
          vlineto
          -75 -155 -42 261 callsubr
          -10.020004272460938 vhcurveto
          -191 vlineto
          100.99000549316406 -10 155 -53 -72.00999450683594 vvcurveto
          -486.99000549316406 vlineto
          -196.97999572753906 208 callgsubr
          245 callgsubr
          154 109 117 11 24 86 vhcurveto
          156 -262 582 vlineto
          41 -13.990005493164062 33 -25 28 vhcurveto
          -19 callgsubr
          49 -85.02000427246094 36 -76.99000549316406 27 76.99000549316406 28 87 35 42 48 rrcurveto
          endchar
        </CharString>
        <CharString name="braceright">
          127 callgsubr
          347.99000549316406 269.97999572753906 vstem
          617.9799957275391 1000 rmoveto
          263 callgsubr
          vlineto
          197 222 callgsubr
          74.02000427246094 -154 -109 -117 -13 -11 -86 vhcurveto
          -171 262 -571 vlineto
          119 callsubr
          209 callsubr
          -34.02000427246094 24 -27 vhcurveto
          42 -48 87 -35 77 -28 -77 -27 -85.00999450683594 -36 -19 callgsubr
          -49 rrcurveto
          158 callgsubr
          -28 -13.990005493164062 -33 -41 vvcurveto
          -582 -262 -156 vlineto
          -24 86 117 -11 109 hhcurveto
          154 208 callgsubr
          74.02000427246094 196.97999572753906 hvcurveto
          486.99000549316406 vlineto
          -7 callsubr
          155.02000427246094 53 100.99000549316406 10 vhcurveto
          191 vlineto
          261 callsubr
          10.020004272460938 -155.02000427246094 42 75 vvcurveto
          endchar
        </CharString>
        <CharString name="bracketleft">
          199 callgsubr
          144.99000549316406 205 callgsubr
          vstem
          145 1485.990005493164 rmoveto
          -1426 vlineto
          -196.97999572753906 35.99000549316406 -54 154 164 67.99000549316406 10 161 callgsubr
          129 vhcurveto
          145 vlineto
          -268 -61 callgsubr
          rlineto
          1569.990005493164 268 163 vlineto
          11 -129 207 callgsubr
          13 -164 hhcurveto
          -153 -36.99000549316406 -54 -197 hvcurveto
          endchar
        </CharString>
        <CharString name="bracketright">
          199 callgsubr
          360.97999572753906 283.00999450683594 vstem
          643.9900054931641 1485.990005493164 rmoveto
          197 -37 54 -153 -163.99000549316406 141 callsubr
          -13 -11 -128.99000549316406 vhcurveto
          -163 267.97999572753906 -1569.990005493164 vlineto
          -267.97999572753906 -65 callsubr
          rlineto
          -145 vlineto
          -14.009994506835938 128.99000549316406 207 callsubr
          -10 163.99000549316406 hhcurveto
          154 36 54 196.97999572753906 hvcurveto
          1426 vlineto
          endchar
        </CharString>
        <CharString name="breve">
          -515 1297.979995727539 218 hstem
          -46 callgsubr
          728 vstem
          -46 callgsubr
          1684.990005493164 rmoveto
          201 callsubr
          243 callgsubr
          146.99000549316406 176 211 94 callgsubr
          hvcurveto
          -193 hlineto
          -44 -5 -12 57 callsubr
          16 callgsubr
          -195.99000549316406 hlineto
          endchar
        </CharString>
        <CharString name="breve.cap">
          -515 1613.979995727539 85 callgsubr
          hstem
          -46 callgsubr
          726.9900054931641 vstem
          -46 callgsubr
          1960 rmoveto
          233 callgsubr
          236 135 143 203 -8 60 callsubr
          -13 95 48 -4 hvcurveto
          -191 hlineto
          endchar
        </CharString>
        <CharString name="brokenbar">
          -465 -185.99000549316406 1965.990005493164 166 callgsubr
          -816 255 816 -255 vlineto
          -1160 vmoveto
          -805.9900054931641 255 805.9900054931641 -255 vlineto
          endchar
        </CharString>
        <CharString name="bullet">
          -425 466.97999572753906 527.9900054931641 hstem
          186.97999572753906 531 vstem
          186.97999572753906 724.9900054931641 rmoveto
          -145 71 callgsubr
          111 65 callsubr
          244 callgsubr
          hhcurveto
          148 124 126.02000427246094 145 -68 callgsubr
          hvcurveto
          244 callgsubr
          3 -109.02000427246094 108.99000549316406 -147.99000549316406 hhcurveto
          -147 -127 -123.99000549316406 -146 -3 hvcurveto
          endchar
        </CharString>
        <CharString name="c">
          6 callgsubr
          147 callgsubr
          310 vstem
          663.9799957275391 1155.990005493164 rmoveto
          -98 callsubr
          45 callsubr
          endchar
        </CharString>
        <CharString name="cacute">
          6 callgsubr
          478.0199890136719 43 147 callgsubr
          310 vstem
          503.99000549316406 1388.990005493164 195 callgsubr
          -137 99 callsubr
          123 callsubr
          208 callsubr
          137 rlinecurve
          -214 5 callsubr
          224 callgsubr
          -233 rmoveto
          -98 callsubr
          45 callsubr
          endchar
        </CharString>
        <CharString name="caron">
          -496 183 callsubr
          198.97999572753906 1698.979995727539 95 callsubr
          -242.02000427246094 9 callgsubr
          rlineto
          endchar
        </CharString>
        <CharString name="caron.cap">
          -561 1575.990005493164 384 hstem
          48.99000549316406 753.9900054931641 vstem
          48.99000549316406 -62 callgsubr
          endchar
        </CharString>
        <CharString name="caronvertical">
          -917 1009.9900054931641 697.9900054931641 hstem
          123.99000549316406 239 vstem
          110 1037.990005493164 rmoveto
          133 37 callsubr
          8 -23 rcurveline
          endchar
        </CharString>
        <CharString name="ccaron">
          6 callgsubr
          147 callgsubr
          310 vstem
          393.99000549316406 1712.990005493164 rmoveto
          -156 -89 285.97999572753906 196 callsubr
          283 372.02000427246094 -161 -29 callsubr
          -233 -246 -242 246 rlineto
          269.99000549316406 -557 rmoveto
          -98 callsubr
          45 callsubr
          endchar
        </CharString>
        <CharString name="ccedilla">
          54 callgsubr
          275 43 119 callsubr
          158 callsubr
          666.0000152587891 122 callgsubr
          hstemhm
          -21 callgsubr
          310 126.989990234375 217 hintmask 00000000
          hintmask 10111100
          977 72 callsubr
          rmoveto
          72 callgsubr
          185 rlineto
          -25 -46 -98 -22 -104 hhcurveto
          -162 -124 114.00999450683594 9 callgsubr
          7 hvcurveto
          229 6 123 callgsubr
          77 131 hhcurveto
          106 64 -15.009994506835938 -29 -20 callsubr
          hvcurveto
          39.02000427246094 241 rlineto
          45 callsubr
          -386.99000549316406 -182 -264 -336 -291 141 -227 205 callgsubr
          -46 hvcurveto
          11 -29 6 -39 -4 -59 rrcurveto
          -103 -4 22 callsubr
          97.02000427246094 33 callgsubr
          -68 callgsubr
          75 -11 82 -76 callsubr
          54 rrcurveto
          hintmask 11011100
          110 13.979995727539062 72 callsubr
          39 55 54 rrcurveto
          endchar
        </CharString>
        <CharString name="ccircumflex">
          6 callgsubr
          147 callgsubr
          310 vstem
          -71 callsubr
          235 callgsubr
          232.97999572753906 -246 161 -29 callsubr
          -283.00999450683594 62 callsubr
          267 callgsubr
          rlineto
          421.99000549316406 -170 rmoveto
          -98 callsubr
          45 callsubr
          endchar
        </CharString>
        <CharString name="cdotaccent">
          6 callgsubr
          151.00999450683594 196 callgsubr
          -21 callgsubr
          310 37.989990234375 379 hintmask 00000000
          hintmask 11111000
          442.97999572753906 92 callsubr
          7 callsubr
          106 92 -79 callsubr
          -104 -95 -40 callsubr
          vhcurveto
          221 -321.99000549316406 rmoveto
          hintmask 11110000
          -98 callsubr
          hintmask 11111000
          45 callsubr
          endchar
        </CharString>
        <CharString name="cedilla">
          -812 54 callgsubr
          hstem
          250.97999572753906 217 vstem
          52.97999572753906 -270.99000549316406 rmoveto
          122 callsubr
          -165 rlineto
          -16 25 97 33 callgsubr
          4 98 122 callsubr
          110 -46 42.97999572753906 -49 4.0200042724609375 rcurveline
          -136.99000549316406 -4.0200042724609375 19.990005493164062 -34.970001220703125 17 -43 -6 -87 rlinecurve
          -103 -4 -52 -47 -65 hhcurveto
          -31.009994506835938 21 callsubr
          endchar
        </CharString>
        <CharString name="cent">
          -143 -216 450.99000549316406 -247.99000549316406 43 -43 141 callgsubr
          -242.99000549316406 43 865.9900054931641 252.99000549316406 -252.99000549316406 475.99000549316406 -270.96002197265625 -102 callsubr
          -33.96000671386719 -62 callsubr
          143.99000549316406 309.97999572753906 112.00999450683594 171.49000549316406 -137.49000549316406 171.49000549316406 hintmask 0000000000000000
          hintmask 0010000110100000
          1025.990005493164 72 callsubr
          rmoveto
          hintmask 0010100010100000
          -45 185 rlineto
          -25 -46 -98 -22 -104 hhcurveto
          -162.02000427246094 -123.99000549316406 114.00999450683594 9 callgsubr
          6.9900054931640625 hvcurveto
          229 6 154 77 -22 callsubr
          hhcurveto
          106 64 -15.009994506835938 -29 55 hvcurveto
          39 241 -33 24 -91.00999450683594 25.990005493164062 -116 6 rlinecurve
          hintmask 0001010010100000
          5 223 rlineto
          -170.99000549316406 hlineto
          hintmask 0001001010100000
          -6 -230 rlineto
          -307 -47.99000549316406 -146 -243.02000427246094 -299.99000549316406 vvcurveto
          hintmask 0001000111000000
          -291 141 -227 283 -46 vhcurveto
          hintmask 1000000111000000
          -4 -208 rlineto
          171.99000549316406 hlineto
          hintmask 0100000111000000
          -68 callgsubr
          203 rlineto
          hintmask 0100000110100000
          120.02000427246094 11 177 callsubr
          41 60 58 rrcurveto
          endchar
        </CharString>
        <CharString name="circumflex">
          -452 183 callsubr
          137 callgsubr
          235 callgsubr
          182 callsubr
          -286 267 callgsubr
          rlineto
          endchar
        </CharString>
        <CharString name="circumflex.cap">
          -462 1649.990005493164 28 callsubr
          48.99000549316406 770 hintmask 00000000
          hintmask 10100000
          48.99000549316406 1649.990005493164 rmoveto
          hintmask 01100000
          162 -90.00999450683594 222 199 221 -199 165 92.02000427246094 24 callgsubr
          hintmask 10100000
          172 callsubr
          endchar
        </CharString>
        <CharString name="colon">
          140 callsubr
          715.9800109863281 139 callgsubr
          hintmask 00000000
          hintmask 01101000
          43 callgsubr
          930 -18 callsubr
          hintmask 01011000
          -112 -93 -99 -36 callgsubr
          1 hvcurveto
          -759.0099945068359 vmoveto
          -2 callgsubr
          hintmask 10011000
          216 callgsubr
          hintmask 01011000
          237 callsubr
        </CharString>
        <CharString name="colonmonetary">
          108 -14 43 -43 281 -267 43 1202.979995727539 292 -49.94999694824219 -102 callsubr
          -31.970016479492188 -62 callsubr
          98 374.97999572753906 113.5 116 5.510009765625 117.49000549316406 13.499984741210938 117 6.4900054931640625 117 hintmask 0000000000000000
          hintmask 0010011010000000
          698 1515.990005493164 rmoveto
          -346.00999450683594 -73.02000427246094 -253.99000549316406 -253.99000549316406 -432 vvcurveto
          -372 173 -262 328 -97 vhcurveto
          hintmask 0010011101000000
          -25 -379.97999572753906 rlineto
          117 hlineto
          23 354 137 callgsubr
          -7 46 -5 47 -2 rlinecurve
          -22 -339.99000549316406 rlineto
          117 hlineto
          hintmask 1000011101000000
          22 339.99000549316406 147 8 65 callgsubr
          40 109 callgsubr
          30 rlinecurve
          hintmask 0100101100100000
          299.99000549316406 vlineto
          -47 -43 57 callsubr
          -47 -124.00999450683594 225 callgsubr
          65 972.9900054931641 rcurveline
          118 -16 64 -42 23 -17 46 109 callsubr
          rcurveline
          -53 12.990005493164062 1 callsubr
          25 -111.99000549316406 161 callgsubr
          18.990005493164062 286 rcurveline
          -117 hlineto
          hintmask 0010011010100000
          -18.990005493164062 -278.02000427246094 rlineto
          1 -12 -12 0 -12 hhcurveto
          -34 -34 -65 callsubr
          -3.0200042724609375 -33.02000427246094 hvcurveto
          19.009994506835938 282.00999450683594 rlineto
          -117 hlineto
          hintmask 0010011010000000
          122 callsubr
          -299 rlineto
          159 callgsubr
          -1245 rmoveto
          13 callgsubr
          6 -44.02000427246094 11 -41 16 rrcurveto
          hintmask 0011001010000000
          62.02000427246094 924 137 callgsubr
          11.020004272460938 46 6 49 119 callgsubr
          rlinecurve
          hintmask 0010011010000000
          -65 -974.9900054931641 rlineto
          -246.99000549316406 103 rmoveto
          -100 89 -49 140 176 vvcurveto
          -83 callgsubr
          76 136 43 callgsubr
          76 vhcurveto
          -52.97999572753906 -805 rlineto
          endchar
        </CharString>
        <CharString name="comma">
          -637 -505.99000549316406 43 hstem
          279.97999572753906 289.00999450683594 vstem
          175.97999572753906 -381.99000549316406 271 callgsubr
          158 181 callsubr
          -16 callgsubr
          47 vhcurveto
          -222 -136 rlineto
          -87 vlineto
          51.02000427246094 -3 208 callgsubr
          -36 callgsubr
          -93 vvcurveto
          -106.99000549316406 -51 -107 -53 -1 callsubr
          vhcurveto
          endchar
        </CharString>
        <CharString name="copyright">
          763 81.97999572753906 129 264.010009765625 199 580 194.99000549316406 187 callsubr
          43 callgsubr
          hstem
          175.97999572753906 142 286.010009765625 203 callsubr
          936.0200042724609 182 callgsubr
          -384 -391 266 callsubr
          -487 384 -394.02000427246094 486.02000427246094 263 callgsubr
          385 394.02000427246094 487 263 callgsubr
          -385 391 266 callsubr
          hvcurveto
          -1629 vmoveto
          -419 -309 338 414 413 309 338 419 419 309 -338 -413 -414 -309 -338 -419 hvcurveto
          53 1238 rmoveto
          -322 -175 -215 -284 2 hvcurveto
          -258.99000549316406 1 172 -216 272 hhcurveto
          133 130 51 53 65 hvcurveto
          -48 159 rlineto
          -28.020004272460938 -47 -78.99000549316406 -35.99000549316406 -99 hhcurveto
          -156 -111 241 callgsubr
          231.02000427246094 119 callgsubr
          hvcurveto
          163 1 106 97 147 hhcurveto
          81 89 -27 -31 270 callsubr
          hvcurveto
          45.02000427246094 206 rlineto
          23 -41 -96.00999450683594 23.990005493164062 -36 callgsubr
          hhcurveto
          endchar
        </CharString>
        <CharString name="currency">
          214 316.97999572753906 219.99000549316406 472.00999450683594 219.99000549316406 hstem
          315.97999572753906 222 454 222 vstem
          1213.990005493164 773 rmoveto
          93.97999572753906 -28 87.02000427246094 -48 73 vhcurveto
          206 204 callgsubr
          -141 147 -213.02000427246094 -213 rlineto
          39 222 callgsubr
          -78.00999450683594 22 -82 hhcurveto
          -81 -77 -22 -39 222 callgsubr
          hvcurveto
          -200 -44 callsubr
          -139 -9 callsubr
          192 -197.02000427246094 rlineto
          -48 -73 -29 -88 -95.99000549316406 vvcurveto
          269 callsubr
          29 43 callsubr
          50 266 callgsubr
          vhcurveto
          -195 -198.99000549316406 141 -144.02000427246094 202 206 rlineto
          -38 65 76 -21 80 hhcurveto
          81 77 22 38.02000427246094 0 callsubr
          hvcurveto
          203 -206 140 145 -195.02000427246094 199 rlineto
          49 72.99000549316406 29 89 96.00999450683594 vvcurveto
          -448 -236 rmoveto
          -16 callgsubr
          -103 110 126.02000427246094 126 103 110 125.00999450683594 79 callgsubr
          101 -110 -126 176 callsubr
          -101 -110 57 callsubr
          hvcurveto
          endchar
        </CharString>
        <CharString name="d">
          9 53 callgsubr
          212 callsubr
          858.9900054931641 1661.990005493164 rmoveto
          -438 vlineto
          -93 callgsubr
          1677.979995727539 -1 callgsubr
          hlineto
          -437 -1103.009994506836 -92 callsubr
        </CharString>
        <CharString name="dagger">
          -294 1076.490005493164 210.49000549316406 hstemhm
          263 callsubr
          256 -248 -71 callsubr
          hintmask 10100000
          263 callsubr
          1076.979995727539 rmoveto
          16.020004272460938 -877 rlineto
          228 hlineto
          11.990005493164062 877 283.00999450683594 -0.9900054931640625 rlineto
          211.99000549316406 vlineto
          hintmask 11000000
          -283.00999450683594 -2 rlineto
          372.02000427246094 -256 -372.02000427246094 vlineto
          -281.99000549316406 2 -1 270 callgsubr
          rlineto
          hintmask 10100000
          283 119 callgsubr
          rlineto
          endchar
        </CharString>
        <CharString name="daggerdbl">
          -294 427.49000549316406 211.49000549316406 437.50999450683594 211 hstemhm
          263 callsubr
          255.00999450683594 -247.50999450683594 237.00999450683594 hintmask 00000000
          hintmask 11010000
          263 callsubr
          427.99000549316406 rmoveto
          232 callsubr
          -783.9900054931641 rlineto
          118 callsubr
          hlineto
          21.020004272460938 783.9900054931641 205 callgsubr
          -1 rlineto
          212 vlineto
          hintmask 11100000
          -282.99000549316406 437.99000549316406 hlineto
          284 -0.9900054931640625 rlineto
          211.99000549316406 vlineto
          -284 -1 rlineto
          371.02000427246094 -255.02000427246094 -371.02000427246094 vlineto
          -281.99000549316406 1 -1 270 callgsubr
          283 119 callgsubr
          rlineto
          -437.99000549316406 -283 -212 vlineto
          hintmask 11010000
          283 1 rlineto
          endchar
        </CharString>
        <CharString name="dcaron">
          317 53 callgsubr
          147 callgsubr
          327 437 -94 callsubr
          240.00999450683594 239 vstem
          1578.990005493164 1707.990005493164 rmoveto
          221 callsubr
          32 -33 27 145 callgsubr
          -10 57 callsubr
          -13 -61 7.9900054931640625 -23 rcurveline
          133.02000427246094 -28 rlineto
          52 60 68 75 callgsubr
          -720 -484 rmoveto
          -93 callgsubr
          1677.979995727539 -1 callgsubr
          -438 hlineto
          -437 -665 -92 callsubr
        </CharString>
        <CharString name="dcroat">
          9 53 callgsubr
          136.989990234375 179.99000549316406 212 callsubr
          1298.979995727539 1472.979995727539 rmoveto
          -128 189 -1 callgsubr
          -189 -227 -180 227 -69 hlineto
          -93 callgsubr
          1308.9700012207031 128 180 hlineto
          -876.9900054931641 -914 -92 callsubr
        </CharString>
        <CharString name="degree">
          -373 920.9799957275391 176 361.010009765625 176 hstem
          264 callsubr
          188 345 186.97999572753906 vstem
          477.97999572753906 1634 rmoveto
          95 callgsubr
          -154 -152 -204 -200 160 -157 199.99000549316406 207 152.99000549316406 151 206 199.99000549316406 -158.99000549316406 156.02000427246094 -201 hvcurveto
          -537 vmoveto
          108 callsubr
          -77 -61 callsubr
          -26 callgsubr
          104 74 76 98 96.00999450683594 77 -78.00999450683594 -75 callgsubr
          -104 -75 -77 71 callsubr
          hvcurveto
          endchar
        </CharString>
        <CharString name="dieresis">
          -356 1309.979995727539 353.00999450683594 hstem
          69.97999572753906 42 callgsubr
          136.00999450683594 42 callgsubr
          vstem
          69.97999572753906 1477.979995727539 rmoveto
          -98 65 -70 65 callgsubr
          104 -61 callsubr
          83 180 callgsubr
          260 callsubr
          -83 -85.02000427246094 -100 vhcurveto
          485 hmoveto
          -98 65 -70 101 104 -61 callsubr
          83 -26 callgsubr
          -57 callgsubr
          -54 -7 callsubr
          -110 170 callsubr
          -85.02000427246094 -100 vhcurveto
          endchar
        </CharString>
        <CharString name="dieresis.cap">
          -342 1613.979995727539 346 hstem
          -20 callsubr
          134 callgsubr
          vstem
          -20 callsubr
          136 callgsubr
          -99 -6 callgsubr
          -65 -85 callgsubr
          106 80 78.00999450683594 104 97 -57 179 callsubr
          524 hmoveto
          106 callsubr
          101 66 callsubr
          78.99000549316406 125 callgsubr
          endchar
        </CharString>
        <CharString name="divide">
          73 136.99000549316406 393.99000549316406 124.00999450683594 234 135.989990234375 394.00999450683594 hstemhm
          522.9900054931641 388.99000549316406 hintmask 00000000
          hintmask 11110000
          526.9900054931641 1212.990005493164 rmoveto
          -109 78 121 callgsubr
          177 callsubr
          113.00999450683594 90.99000549316406 94 113 177 callsubr
          -42 callsubr
          99 callsubr
          -117 -111 -94 -95 -111 vhcurveto
          -324 -323.99000549316406 rmoveto
          -234 996.9900054931641 234 -996.9900054931641 vlineto
          320 -564 rmoveto
          -109.02000427246094 77.99000549316406 -78.99000549316406 107 -37 callsubr
          244 callsubr
          94 -37 callsubr
          106 1 callsubr
          81 -116 -111 108 callsubr
          108 callsubr
          -111 vhcurveto
          endchar
        </CharString>
        <CharString name="dollar">
          80 269 callgsubr
          457.9700012207031 -246.97999572753906 43 -43 246.99000549316406 -242.99000549316406 43 1266.979995727539 -9 callgsubr
          -236.99000549316406 462.99000549316406 -274.94000244140625 -62 callsubr
          223 callsubr
          -68 callsubr
          32.970001220703125 183.52000427246094 268 callsubr
          183.5 93.02999877929688 320 hintmask 0000000000000000
          hintmask 0100100101100000
          1216 231 callsubr
          rmoveto
          247 -179.02000427246094 109 -239 126.00999450683594 vhcurveto
          -185 98 159 callsubr
          47 109 vvcurveto
          94 58.99000549316406 61.99000549316406 169 152 106 147 callsubr
          74 vhcurveto
          52 246.99000549316406 13 callgsubr
          32 -128 48 -169 6.9900054931640625 rlinecurve
          hintmask 0001010101100000
          6 226 rlineto
          -183 hlineto
          hintmask 0010001101100000
          225 callgsubr
          -233.97999572753906 rlineto
          -223 -33.02000427246094 -170 -117.99000549316406 -250 vvcurveto
          -249.02000427246094 198 -134.99000549316406 180 -89 vhcurveto
          234 -116 61 -44 -106.99000549316406 vvcurveto
          -67 callsubr
          -54 -53 -169 -163 -144 49 47 -85.00999450683594 vhcurveto
          hintmask 0001001101100000
          -45 -255 rlineto
          hintmask 0001001110100000
          45 -28 136 -40.02000427246094 123 callgsubr
          -15.970001220703125 rrcurveto
          hintmask 1000001110100000
          -6 -215 rlineto
          184 hlineto
          hintmask 0100001110100000
          5 210.99000549316406 rlineto
          hintmask 0100100101100000
          245 callsubr
          19 185.02000427246094 146.99000549316406 256 vvcurveto
          endchar
        </CharString>
        <CharString name="dong">
          44 0 229 callgsubr
          93.989990234375 229 509.010009765625 118 callsubr
          105.00999450683594 167.99000549316406 hstem
          150.99000549316406 -55 callgsubr
          348.99998474121094 327 vstem
          500.97999572753906 1520.990005493164 rmoveto
          -168 328 vlineto
          3.0200042724609375 -121 rlineto
          7.9900054931640625 -35 -53 8 245 callgsubr
          hhcurveto
          -319 -199.99000549316406 -189 -322.99000549316406 -303 190 -142 221 180 80 69.02000427246094 41 43 hvcurveto
          -70 vlineto
          -8 0 -32.02000427246094 23 vhcurveto
          268 1062.020004272461 182 168 -182 173 -327 -173 -328 hlineto
          328 -942 rmoveto
          -18 -26.009994506835938 -46 -41 160 callgsubr
          hhcurveto
          -83 -75 63 159 170 45 117 155.02000427246094 104 30.990005493164062 -23 -13 14 hvcurveto
          -414 vlineto
          -694 -382 rmoveto
          -197 1105 197 -1105 vlineto
          endchar
        </CharString>
        <CharString name="dotaccent">
          -841 1306.990005493164 108 callgsubr
          hstem
          -20 callsubr
          379 vstem
          -20 callsubr
          92 callsubr
          259 callsubr
          106 92 -79 callsubr
          -104 -95.00999450683594 -40 callsubr
          vhcurveto
          endchar
        </CharString>
        <CharString name="dotaccent.cap">
          -841 1613.979995727539 345 hstem
          64 360.97999572753906 vstem
          64 136 callgsubr
          -100 69.97999572753906 -64 -26 callgsubr
          106 82.99000549316406 30 callsubr
          66 -111 -104 246 callgsubr
          endchar
        </CharString>
        <CharString name="dotlessi">
          5 callgsubr
          174 1140 -66 callgsubr
        </CharString>
        <CharString name="e">
          -80 callgsubr
          -35 callsubr
          1093 709 -107 callsubr
        </CharString>
        <CharString name="eacute">
          -80 callgsubr
          478.00999450683594 43 -35 callsubr
          1055.990005493164 -18 callgsubr
          37 -925 -107 callsubr
        </CharString>
        <CharString name="ebreve">
          -80 callgsubr
          141.989990234375 218 -35 callsubr
          634.9799957275391 1297.979995727539 rmoveto
          243 callgsubr
          146.99000549316406 176 211 94 callgsubr
          hvcurveto
          -193 hlineto
          -44 -5 -12 57 callsubr
          16 callgsubr
          -195.99000549316406 hlineto
          201 callsubr
          458.02000427246094 -588.9900054931641 -107 callsubr
        </CharString>
        <CharString name="ecaron">
          -80 callgsubr
          -35 callsubr
          744 67 callsubr
          349 -541.9799957275391 -107 callsubr
        </CharString>
        <CharString name="ecircumflex">
          -80 callgsubr
          -35 callsubr
          636.9900054931641 1483 rmoveto
          233 -246 230 callsubr
          -29 callsubr
          -282.99000549316406 239 callsubr
          267 callgsubr
          156.02000427246094 -89 -71 callsubr
          246 rlineto
          456.00999450683594 -774 -107 callsubr
        </CharString>
        <CharString name="edieresis">
          -80 callgsubr
          153.989990234375 353.00999450683594 hstemhm
          -21 callgsubr
          -73 callgsubr
          -196.00999450683594 42 callgsubr
          136.00999450683594 42 callgsubr
          -248.010009765625 290.02000427246094 hintmask 00000000
          hintmask 11110110
          383 1309.979995727539 rmoveto
          104 79 83 110 callgsubr
          -83 -85.02000427246094 162 callsubr
          83 -26 callgsubr
          -57 callgsubr
          -54 -7 callsubr
          -110 170 callsubr
          -85.02000427246094 -100 -98 65 -70 100.99000549316406 hvcurveto
          hintmask 11101001
          243 callgsubr
          -600.9900054931641 -107 callsubr
        </CharString>
        <CharString name="edotaccent">
          -80 callgsubr
          151 196 callgsubr
          -21 callgsubr
          -73 callgsubr
          26.990005493164062 379 -16.020004272460938 290.02000427246094 hintmask 00000000
          hintmask 11111100
          620.9900054931641 195 callsubr
          106 92 -79 callsubr
          -104 -95 -40 callsubr
          0 callgsubr
          91 callsubr
          hvcurveto
          hintmask 11101010
          472 -598 -107 callsubr
        </CharString>
        <CharString name="egrave">
          -80 callgsubr
          478.00999450683594 43 -35 callsubr
          605.9799957275391 1251.979995727539 rmoveto
          149.02000427246094 137 -117 108 -141 169 143 callsubr
          -38 rlinecurve
          487.02000427246094 -542.9900054931641 -107 callsubr
        </CharString>
        <CharString name="eight">
          26 -99 callgsubr
          219.97999572753906 1151.000015258789 210 hstemhm
          128.97999572753906 295.00999450683594 -243.99998474121094 287.97999572753906 427.02000427246094 245 callsubr
          -247.99000549316406 310.97999572753906 hintmask 11010100
          1234.979995727539 409.99000549316406 rmoveto
          -65 callsubr
          193 -157 116 -172 72 callsubr
          rrcurveto
          hintmask 11011000
          184.02000427246094 89.00999450683594 -16 callsubr
          168 139 vvcurveto
          209 -182 144.02000427246094 -308 -309 -192.99000549316406 -159 -232 -188 104 -118 -22 callsubr
          85 callsubr
          vhcurveto
          hintmask 11100100
          -208 -108.00999450683594 -78.00999450683594 -147.99000549316406 -138.02000427246094 vvcurveto
          -268 240 -132.97000122070312 323.00999450683594 vhcurveto
          hintmask 11010100
          304.99000549316406 241 146.97999572753906 279 -3.0200042724609375 hvcurveto
          -556.9900054931641 945.0099945068359 rmoveto
          hintmask 11011000
          137.99000549316406 242 callgsubr
          -72 -96.02000427246094 hvcurveto
          4 206 callsubr
          -57 -107 -127 -52 rrcurveto
          -137 77 -110 -30 callsubr
          116.99000549316406 vvcurveto
          hintmask 11010100
          98.02000427246094 94 64 116 vhcurveto
          209 callsubr
          -1151.020004272461 rmoveto
          hintmask 11100100
          -191 159 callsubr
          89 110 127 72.99000549316406 85.00999450683594 106 56 hvcurveto
          167 -86 154 -59 callgsubr
          -134 vvcurveto
          hintmask 11010100
          -111 -109.02000427246094 -63.02000427246094 -122 vhcurveto
          endchar
        </CharString>
        <CharString name="ellipsis">
          573 -22 160 callsubr
          hstemhm
          105 callgsubr
          241.99998474121094 389.02000427246094 -71 callsubr
          388.99000549316406 hintmask 00000000
          hintmask 11110000
          43 callgsubr
          159 callgsubr
          rmoveto
          -2 callgsubr
          216 callgsubr
          92 callgsubr
          630.9900054931641 hmoveto
          -110 1 -30 callsubr
          79 callsubr
          177 callsubr
          hhcurveto
          113.00999450683594 91 36 callsubr
          -65 callsubr
          hvcurveto
          -52 callsubr
          -1 141 callsubr
          238 callgsubr
          -111.99000549316406 -93 -99 65 callsubr
          119 callgsubr
          hvcurveto
          631.0099945068359 hmoveto
          -110 1 79 79 callsubr
          107 hhcurveto
          -37 callsubr
          -21 callsubr
          36 callsubr
          96 callgsubr
        </CharString>
        <CharString name="emacron">
          -80 callgsubr
          263.989990234375 206 hstemhm
          -21 callgsubr
          -73 callgsubr
          245 callgsubr
          177 callgsubr
          -127.01998901367188 290.02000427246094 hintmask 00000000
          hintmask 11110100
          930 1625.990005493164 rmoveto
          -591.0200042724609 -206 591.0200042724609 206 hlineto
          hintmask 11111010
          163 -916.9900054931641 -107 callsubr
        </CharString>
        <CharString name="emdash">
          1083 643.9900054931641 245 hstem
          158 callsubr
          1923.009994506836 vstem
          158 callsubr
          889 rmoveto
          -245 1923.009994506836 245 -1923.009994506836 vlineto
          endchar
        </CharString>
        <CharString name="endash">
          372 643.9900054931641 245 hstem
          158 callsubr
          1212 vstem
          158 callsubr
          889 rmoveto
          -245 1212 245 -1212 vlineto
          endchar
        </CharString>
        <CharString name="eng">
          22 -507 199 -184.97999572753906 43 449.97999572753906 43 861.9900054931641 253.99000549316406 -61.95001220703125 40.96000671386719 148 callgsubr
          174 1137.990005493164 rmoveto
          -1137.990005493164 312 vlineto
          hintmask 10110110
          814 vlineto
          69 -7 callgsubr
          101 29 56 1 rrcurveto
          130 3.9900054931640625 36 -65 -186 vvcurveto
          -702.9700012207031 vlineto
          -230.02000427246094 -39.02000427246094 -32.99000549316406 43 callsubr
          -24 -63 3.9900054931640625 7 232 callgsubr
          vhcurveto
          hintmask 01101110
          -195.99000549316406 vlineto
          hintmask 10110110
          -29 callgsubr
          38 94 -6 109 callgsubr
          hhcurveto
          195 155 131 344.99000549316406 hvcurveto
          746.9900054931641 vlineto
          -1 334 -113.99000549316406 117 -241 -29 callgsubr
          -140 -67 callgsubr
          57 callgsubr
          -79 -77 -58 rrcurveto
          hintmask 10101110
          -6 120 rlineto
          -283 hlineto
          endchar
        </CharString>
        <CharString name="eogonek">
          -140 37 callgsubr
          295.02000427246094 231.97999572753906 278.99000549316406 173.00999450683594 266.00001525878906 222 hstemhm
          -21 callgsubr
          -73 callgsubr
          168.97999572753906 245 -24.009994506835938 290.02000427246094 hintmask 11111010
          1093 709 rmoveto
          -4.0200042724609375 332 -212.99000549316406 116.99000549316406 -235.99000549316406 197 callgsubr
          -350 -2 -195 -248 -332 vvcurveto
          -370.00999450683594 190 -219.97000122070312 348 vhcurveto
          hintmask 11111100
          38.99000549316406 39 -68 callgsubr
          4.0099945068359375 38 hvcurveto
          -94 -63.02000427246094 -81 206 callsubr
          7.9900054931640625 -136 249 callgsubr
          -59 callgsubr
          126.02000427246094 -4 callgsubr
          -12 -42 -19 callgsubr
          -8 -39 hhcurveto
          1 callsubr
          -51 23 65 -3 hvcurveto
          139 131 108.99000549316406 88 65 vhcurveto
          -1 hlineto
          4 3 4.0099945068359375 -61 callgsubr
          -68 callgsubr
          3 -51 -17 callsubr
          rcurveline
          -32.99000549316406 -60 -152 -26.009994506835938 -81 hhcurveto
          -175 -117 85.00999450683594 193.99000549316406 -12 hvcurveto
          hintmask 11111010
          674.0200042724609 hlineto
          7.9900054931640625 51.02000427246094 3 76.99000549316406 86.02000427246094 vvcurveto
          -290.02000427246094 -41 rmoveto
          -389.97999572753906 hlineto
          203 22 80 63 115 hhcurveto
          140 43 -99 -167 -10.020004272460938 hvcurveto
          endchar
        </CharString>
        <CharString name="equal">
          165 callsubr
          250.97999572753906 1139 rmoveto
          -216 921 216 -921 vlineto
          -512 vmoveto
          -216 921 216 -921 vlineto
          endchar
        </CharString>
        <CharString name="estimated">
          53 -99 callgsubr
          162.97999572753906 464.99000549316406 156.00999450683594 424.99000549316406 163 hstem
          108.99000549316406 326 535 304 vstem
          1262.979995727539 611.9799957275391 rmoveto
          11.020004272460938 51.02000427246094 0 82.99000549316406 86.02000427246094 vvcurveto
          -11.020004272460938 -55 callgsubr
          -232 200 -295 -5.0200042724609375 rrcurveto
          -426 225 callgsubr
          -201 -286 -392 vvcurveto
          -430 225 -256.97999572753906 398.00999450683594 193.99000549316406 187 69.97999572753906 61 85.00999450683594 vhcurveto
          -70 151 rlineto
          -55 266 callgsubr
          -140 -64 -164.99000549316406 hhcurveto
          176 callsubr
          -111 30 81 159 callsubr
          hvcurveto
          354 827.9900054931641 vlineto
          -541 581 rmoveto
          118 -65 callgsubr
          -28 -46 52 hvcurveto
          -350.99000549316406 -535 308.97999572753906 vlineto
          82 226 callsubr
          -85 callgsubr
          34 111 hhcurveto
          endchar
        </CharString>
        <CharString name="eth">
          -36 -26.990005493164062 242 callsubr
          729.9799957275391 217 147 callgsubr
          323.99000549316406 472.99998474121094 323.00999450683594 vstem
          703 1594.979995727539 rmoveto
          58 70 65 87 0 vvcurveto
          -152 100 rlineto
          0 -69 -98 -56 -74 vhcurveto
          -80 44 -84.00999450683594 30 -111.99000549316406 33 -53 206 callgsubr
          rcurveline
          70.97999572753906 -21.009994506835938 69.02000427246094 -1 callsubr
          64 -39.02000427246094 -122 -157.99000549316406 rcurveline
          149 -99 117 157.99000549316406 136 callsubr
          -81.99000549316406 92 -117 42 -124 rlinecurve
          31 13 callgsubr
          -64 20.990005493164062 -78.00999450683594 hhcurveto
          -338 -191 -235.99000549316406 -363 -344 218 -234.97999572753906 340.99000549316406 2 hvcurveto
          312 -61 callgsubr
          249.02000427246094 242 callsubr
          447.02000427246094 vvcurveto
          390.99000549316406 -200 376.00999450683594 -1 callgsubr
          -17 callsubr
          vhcurveto
          -43 -1392.990005493164 rmoveto
          -148.99000549316406 100 callgsubr
          117 227.97999572753906 245 -21 callsubr
          140 150 114 81.02000427246094 -63 -53 30.990005493164062 hvcurveto
          5 -63 1 -105 -74 vvcurveto
          -240 -75 callgsubr
          -132 -130 vhcurveto
          endchar
        </CharString>
        <CharString name="exclam">
          140 callsubr
          hstemhm
          173.99000549316406 306.99000549316406 hintmask 01100000
          151 1780 rmoveto
          46 117 callgsubr
          -347 hlineto
          -25 46 callsubr
          hintmask 10100000
          169 callgsubr
          -117 hhcurveto
          hintmask 01100000
          -111 -94 -99 65 callsubr
          2 hvcurveto
          endchar
        </CharString>
        <CharString name="exclamdbl">
          -60 -22 160 callsubr
          hstem
          173.99000549316406 306.99000549316406 321.989990234375 307.02000427246094 vstem
          151 1780 rmoveto
          46 117 callgsubr
          -347 hlineto
          628.9900054931641 hmoveto
          46.02000427246094 117 callgsubr
          -347.00999450683594 hlineto
          -653.9900054931641 46 callsubr
          169 callgsubr
          -117 hhcurveto
          -111 -94 -99 65 callsubr
          2 hvcurveto
          629 hmoveto
          -110 1 77.99000549316406 79 callsubr
          107 hhcurveto
          114 1 callgsubr
          36 callsubr
          -1 hvcurveto
          -52 callsubr
          -1 207 callgsubr
          -63 callgsubr
          -117 hhcurveto
          -111 -94 -99 65 callsubr
          2 hvcurveto
          endchar
        </CharString>
        <CharString name="exclamdown">
          -689 -435.99000549316406 1801.990005493164 -405.02000427246094 405.00999450683594 hstemhm
          116 388.99000549316406 -355 306.99000549316406 hintmask 00000000
          hintmask 01100000
          505 1172.990005493164 rmoveto
          110 -1 -78.00999450683594 83 -106.99000549316406 hhcurveto
          -114.02000427246094 43 callsubr
          -98 -115.02000427246094 1 hvcurveto
          206 callsubr
          119 callgsubr
          207 callsubr
          -84.00999450683594 117 hhcurveto
          111 93.99000549316406 99 113.00999450683594 -65 callsubr
          hvcurveto
          hintmask 10010000
          158 callgsubr
          -1608.990005493164 rmoveto
          -46 1224.990005493164 rlineto
          -267 hlineto
          -34 -1224.990005493164 rlineto
          346.99000549316406 hlineto
          endchar
        </CharString>
        <CharString name="f">
          -472 16 callsubr
          hstem
          -9 callgsubr
          -94 callsubr
          vstem
          -9 callgsubr
          924 -96 callgsubr
          endchar
        </CharString>
        <CharString name="f_f">
          386 16 callsubr
          hstem
          -9 callgsubr
          -94 callsubr
          545.9999847412109 -68 callsubr
          vstem
          -9 callgsubr
          924 -96 callgsubr
          857.9900054931641 hmoveto
          178 callgsubr
          65 69 -21 callgsubr
          78 -101 callsubr
          endchar
        </CharString>
        <CharString name="f_f_i">
          -97 callsubr
        </CharString>
        <CharString name="f_f_i_trk">
          1046 12 callgsubr
          259 callgsubr
          -202.00001525878906 219.99000549316406 hstemhm
          -9 callgsubr
          -94 callsubr
          545.9999847412109 -68 callsubr
          456.99000549316406 379 -352.989990234375 -94 callsubr
          hintmask 11011101
          -9 callgsubr
          924 -96 callgsubr
          857.9900054931641 hmoveto
          178 callgsubr
          65 69 -21 callgsubr
          78 -101 callsubr
          hintmask 11101110
          769 553.9900054931641 rmoveto
          0 callgsubr
          7 callsubr
          106 92 -79 callsubr
          -104 -95 -40 callsubr
          vhcurveto
          hintmask 11011101
          175 callgsubr
          -337.99000549316406 rmoveto
          -1140 -94 callsubr
          1140 -1 callgsubr
          vlineto
          endchar
        </CharString>
        <CharString name="f_f_l">
          1058 16 callsubr
          132 callgsubr
          416.99998474121094 -68 callsubr
          546.0000152587891 -94 callsubr
          vstem
          908.9799957275391 149 callsubr
          64.99000549316406 69 95 -65 callgsubr
          -101 callsubr
          267 callsubr
          hmoveto
          -924 312 924 266 216 -266 124 callsubr
          31 -5 callgsubr
          -197.02000427246094 -228.99000549316406 -100 -333.99000549316406 hvcurveto
          -109 vlineto
          -155 -34.02000427246094 rlineto
          -181.99000549316406 155 vlineto
          -1587 738 -11 callgsubr
          endchar
        </CharString>
        <CharString name="f_i_trk">
          188 -13 callsubr
          -9 callgsubr
          -94 callsubr
          445.00999450683594 379 -341.010009765625 -68 callsubr
          hintmask 11011010
          -9 callgsubr
          924 -96 callgsubr
          hintmask 11101100
          757 553 rmoveto
          -100 91 callsubr
          -36 callsubr
          -111 -104 108 callsubr
          -85.02000427246094 -75 callgsubr
          vhcurveto
          hintmask 11011010
          37.99000549316406 -337 rmoveto
          -1140 109 callsubr
          1140 -312.02000427246094 vlineto
          endchar
        </CharString>
        <CharString name="ffi_dflt">
          -97 callsubr
        </CharString>
        <CharString name="fi">
          188 -13 callsubr
          100 callsubr
          379 -341 311.99000549316406 410.99998474121094 -68 callsubr
          hintmask 11010110
          896.9799957275391 149 callsubr
          65 69 -21 callgsubr
          78 -101 callsubr
          hintmask 11101010
          -761 553 -90 callgsubr
          hintmask 11010110
          -2 callsubr
        </CharString>
        <CharString name="fi_trk">
          188 -13 callsubr
          100 callsubr
          379 -341 311.99000549316406 410.99998474121094 -68 callsubr
          hintmask 11010110
          896.9799957275391 149 callsubr
          65 69 -21 callgsubr
          78 -101 callsubr
          hintmask 11101010
          -761 553 -90 callgsubr
          hintmask 11010110
          -2 callsubr
        </CharString>
        <CharString name="five">
          -37 -353.99000549316406 242 callsubr
          575.9900054931641 234 299.989990234375 266.99000549316406 hstem
          832 318.99000549316406 vstem
          192 -340.99000549316406 rmoveto
          -11.020004272460938 37.99000549316406 -7 callgsubr
          -65 callsubr
          36 hhcurveto
          505.02000427246094 -68 callgsubr
          319 262 333.99000549316406 vvcurveto
          266.02000427246094 -161.02000427246094 174 -280 159 callsubr
          -76 -13 -22 -98 vhcurveto
          33 335 rlineto
          593 hlineto
          28 267 rlineto
          -846.9900054931641 hlineto
          -66.00999450683594 -837 50.02000427246094 -30 rlineto
          35 177 callsubr
          105 31.009994506835938 85.02000427246094 hhcurveto
          209 -1 77 -71 -145 vvcurveto
          -214 -230.02000427246094 -144.99000549316406 -330 -26 -76 callsubr
          1 1 -27.020004272460938 vhcurveto
          -0.9799957275390625 -217.99000549316406 rlineto
          endchar
        </CharString>
        <CharString name="fl">
          200 16 callsubr
          132 callgsubr
          416.99998474121094 -68 callsubr
          vstem
          908.9799957275391 149 callsubr
          64.99000549316406 69 95 -65 callgsubr
          -101 callsubr
          -728.9900054931641 738 -11 callgsubr
          endchar
        </CharString>
        <CharString name="florin">
          -151 923.9900054931641 216 316.989990234375 227 -20.979995727539062 43 hstemhm
          207.99000549316406 888.9900054931641 -691.5000152587891 314.50999450683594 hintmask 10110000
          384 924 rmoveto
          -111 -1280 rlineto
          314 hlineto
          110 1280 rlineto
          274.97999572753906 hlineto
          17.020004272460938 216 rlineto
          hintmask 11001000
          -274 hlineto
          10 241 callgsubr
          rlineto
          164 17 77 64 225 callsubr
          hhcurveto
          81 54 -8.990005493164062 -14.009994506835938 22 hvcurveto
          hintmask 10110000
          18 229 rlineto
          hintmask 11001000
          107 callsubr
          -20.009994506835938 -74 12 43 callsubr
          hhcurveto
          -235 -232 65 callsubr
          -348 -36 hvcurveto
          -8.990005493164062 48 callgsubr
          -179.02000427246094 -38 -13.990005493164062 -177.99000549316406 rlineto
          hintmask 10110000
          176 hlineto
          endchar
        </CharString>
        <CharString name="four">
          82 0 203 callsubr
          hstem
          827.9799957275391 300.00999450683594 vstem
          1361 203 callsubr
          rmoveto
          -233 410.00999450683594 -262 hlineto
          -38 -410.00999450683594 rlineto
          -388 hlineto
          76 127 461 850 -244 123 rlineto
          266 callgsubr
          hlineto
          -560 -1200.990005493164 76 -133 rlineto
          652 -375.99000549316406 300.00999450683594 375.99000549316406 233 203 callsubr
          hlineto
          endchar
        </CharString>
        <CharString name="four.numr">
          -28 callgsubr
        </CharString>
        <CharString name="fraction">
          -294 0 43 1446.0299987792969 -102 callsubr
          hstem
          127 781.9799957275391 vstem
          127 hmoveto
          239.99000549316406 hlineto
          542 1530 rlineto
          -243 hlineto
          -538.9900054931641 -1530 rlineto
          endchar
        </CharString>
        <CharString name="franc">
          -64 0 437.97999572753906 -220.989990234375 220.99000549316406 157.99998474121094 265.99000549316406 391.00999450683594 269 hstemhm
          224.99000549316406 359.99000549316406 hintmask 10111000
          -20 callsubr
          437.99000549316406 rmoveto
          hintmask 01111000
          -221 170 vlineto
          hintmask 10111000
          156 callsubr
          360 vlineto
          hintmask 01111000
          224 callsubr
          270 vlineto
          hintmask 10111000
          221 -270 158 450 266 -450 391 578.9900054931641 269 -938.9900054931641 -1084 -170 vlineto
          endchar
        </CharString>
        <CharString name="g">
          -80 callsubr
          -47 callgsubr
          354.00999450683594 20 callsubr
          hintmask 1111001010000000
          1287.990005493164 1140 -100 callsubr
        </CharString>
        <CharString name="gbreve">
          -80 callsubr
          141.989990234375 218 -47 callgsubr
          354.00999450683594 20 callsubr
          hintmask 1111010101000000
          634 1297.979995727539 rmoveto
          225 147 176 211 -8 hvcurveto
          -193 hlineto
          -44 -5 -12 57 callsubr
          16 callgsubr
          -196 hlineto
          -211 -8 136 -176 236 hhcurveto
          653.9900054931641 -157.99000549316406 27 callsubr
          hintmask 1110110101000000
          -86 callsubr
          hintmask 1111010011000000
          -77 callsubr
          hintmask 1111011000100000
          -91 callsubr
          hintmask 1111010011000000
          -91 callgsubr
          hintmask 1111010101000000
          114 callgsubr
          hintmask 1110110101000000
          145 92 39 116 128 65 -65 -123 vhcurveto
          hintmask 1111010101000000
          -142.99000549316406 -92 -32 -115.02000427246094 vhcurveto
          51.02000427246094 -599.9799957275391 rmoveto
          hintmask 1111011000100000
          -95 callgsubr
          hintmask 1111010101000000
          163 hlineto
          endchar
        </CharString>
        <CharString name="gcircumflex">
          -80 callsubr
          -47 callgsubr
          354.00999450683594 20 callsubr
          hintmask 1111001010000000
          635.9900054931641 1483 rmoveto
          182 callsubr
          -285.97999572753906 267 callgsubr
          217 callsubr
          rlineto
          652 -343 -100 callsubr
        </CharString>
        <CharString name="gcommaaccent">
          -80 callsubr
          -47 callgsubr
          -20.000015258789062 257 117.010009765625 20 callsubr
          hintmask 0000000000000000
          hintmask 1111001011000000
          652.9799957275391 1287.990005493164 rmoveto
          139 121 rlineto
          69 vlineto
          -51 10.009994506835938 -34 79 62 vvcurveto
          82.99000549316406 24 35 29 35 vhcurveto
          23 vlineto
          -118 51.02000427246094 rlineto
          -76 -22.020004272460938 -116 -121 -164 vvcurveto
          -151 103 -99 100 -11 vhcurveto
          635 -147.99000549316406 27 callsubr
          hintmask 1110101001000000
          -86 callsubr
          hintmask 1111000101000000
          -77 callsubr
          hintmask 1111010000100000
          -91 callsubr
          hintmask 1111000101000000
          -91 callgsubr
          hintmask 1111001011000000
          226.02000427246094 vlineto
          hintmask 1110101001000000
          -35 callgsubr
          145 92 39 116 128 65 -65 -123 -142.99000549316406 -92 -32 -115.02000427246094 hvcurveto
          51.02000427246094 -599.9799957275391 rmoveto
          hintmask 1111010000100000
          -95 callgsubr
          hintmask 1110101001000000
          163 hlineto
          endchar
        </CharString>
</ttFont>
